<?xml version="1.0" encoding="UTF-8" standalone="no"?>
<!-- Created with Inkscape (http://www.inkscape.org/) -->

<svg
   width="174.64252mm"
   height="34.869637mm"
   viewBox="0 0 174.64252 34.869637"
   version="1.1"
   id="svg5"
   xml:space="preserve"
   xmlns:inkscape="http://www.inkscape.org/namespaces/inkscape"
   xmlns:sodipodi="http://sodipodi.sourceforge.net/DTD/sodipodi-0.dtd"
   xmlns="http://www.w3.org/2000/svg"
   xmlns:svg="http://www.w3.org/2000/svg"><sodipodi:namedview
     id="namedview7"
     pagecolor="#ffffff"
     bordercolor="#000000"
     borderopacity="0.25"
     inkscape:showpageshadow="2"
     inkscape:pageopacity="0.0"
     inkscape:pagecheckerboard="0"
     inkscape:deskcolor="#d1d1d1"
     inkscape:document-units="mm"
     showgrid="false" /><defs
     id="defs2" /><g
     inkscape:label="Слой 1"
     inkscape:groupmode="layer"
     id="layer1"
     transform="translate(-27.460448,-84.105459)"><path
       style="fill:none;fill-opacity:1;stroke:none;stroke-width:0.264583;stroke-opacity:1"
       d="m 122.64624,118.81858 c -0.29104,0.0739 -0.76729,0.0381 -1.05833,-0.0797 -0.29104,-0.11777 -0.72248,-0.43653 -0.95874,-0.70837 -0.23626,-0.27184 -0.56684,-0.92232 -0.73462,-1.44553 -0.18058,-0.56312 -0.33598,-3.31608 -0.38085,-6.74687 -0.0573,-4.38465 -0.16836,-5.98168 -0.45601,-6.55995 -0.20911,-0.42039 -0.49926,-0.76871 -0.64478,-0.77403 -0.14552,-0.005 -0.52556,0.37574 -0.84453,0.84681 -0.31897,0.47108 -0.7241,1.53377 -0.90029,2.36154 -0.24875,1.16859 -0.25126,2.43625 -0.0112,5.6708 0.25688,3.4618 0.24753,4.31132 -0.0554,5.02708 -0.20047,0.47373 -0.58929,1.05369 -0.86404,1.2888 -0.27474,0.23512 -0.81284,0.50174 -1.19578,0.59248 -0.38293,0.0907 -1.06981,0.0348 -1.5264,-0.12439 -0.5336,-0.18602 -1.05598,-0.68122 -1.46232,-1.38623 -0.3477,-0.60326 -0.79122,-1.81122 -0.98561,-2.68434 -0.24283,-1.09068 -0.35393,-3.65758 -0.35498,-8.20209 l -0.002,-6.614576 0.59689,-1.85208 c 0.32829,-1.01865 0.74501,-2.041 0.92604,-2.27189 0.18103,-0.23089 0.60958,-0.56921 0.95232,-0.75182 0.36822,-0.19619 0.98595,-0.26396 1.50989,-0.16567 0.49556,0.093 1.12521,0.46954 1.42735,0.85365 0.29735,0.37801 0.54063,0.86369 0.54063,1.07928 0,0.25021 0.395,0.0351 1.0921,-0.59466 0.60064,-0.54265 1.63021,-1.22467 2.28791,-1.51561 0.81684,-0.36133 1.52207,-0.48521 2.22528,-0.39089 0.5662,0.076 1.29945,0.31499 1.62944,0.53121 0.32999,0.21621 0.891,0.97108 1.24669,1.67747 0.35569,0.70639 0.67158,1.32906 0.70198,1.38371 0.0304,0.0547 0.38524,-0.29278 0.78855,-0.77208 0.4033,-0.4793 1.26494,-1.20862 1.91475,-1.62072 0.90157,-0.57173 1.50315,-0.74927 2.53882,-0.74927 1.06788,0 1.47726,0.1277 1.91995,0.59892 0.30946,0.32941 0.76066,1.07282 1.00267,1.65203 0.24201,0.57921 0.60443,2.06587 0.80537,3.30368 0.20372,1.254856 0.36345,4.123516 0.36105,6.483906 -0.002,2.32833 -0.10805,4.94771 -0.23483,5.82083 -0.12679,0.87313 -0.36227,2.07553 -0.52329,2.67202 -0.16102,0.59648 -0.56359,1.48639 -0.89459,1.97757 -0.33101,0.49118 -0.91847,1.07078 -1.30547,1.288 -0.52393,0.29407 -0.89408,0.32924 -1.44926,0.13772 -0.4719,-0.16279 -0.93987,-0.64522 -1.27478,-1.31418 l -0.52917,-1.05696 0.0716,-5.95313 c 0.0394,-3.27422 0.003,-6.34747 -0.0812,-6.82944 -0.12271,-0.70373 -0.26229,-0.86006 -0.7087,-0.79375 -0.32159,0.0478 -0.76096,0.47902 -1.04244,1.02318 -0.26759,0.51733 -0.60156,1.88655 -0.74215,3.0427 -0.14058,1.15616 -0.37696,3.53187 -0.52528,5.27935 -0.14832,1.74749 -0.45442,3.79937 -0.68022,4.55973 -0.2258,0.76036 -0.67441,1.67247 -0.9969,2.02689 -0.32249,0.35443 -0.82448,0.70491 -1.11552,0.77885 z m -0.59794,-0.35626 c 0.12972,0 0.46576,-0.12304 0.74676,-0.27343 0.281,-0.15038 0.73564,-0.71593 1.01032,-1.25677 0.27467,-0.54084 0.63165,-1.63818 0.79328,-2.43855 0.16164,-0.80036 0.41753,-3.18161 0.56864,-5.29166 0.15112,-2.11006 0.45406,-4.46623 0.67321,-5.23594 0.21915,-0.76972 0.63188,-1.63292 0.91719,-1.91823 0.28531,-0.28531 0.80938,-0.51875 1.16459,-0.51875 0.35522,0 0.74217,0.14883 0.8599,0.33073 0.11773,0.1819 0.21405,3.36682 0.21405,7.0776 0,5.95288 0.0551,6.84762 0.46783,7.60294 0.27515,0.50348 0.75949,0.92926 1.17596,1.03379 0.59566,0.1495 0.84297,0.0217 1.55728,-0.80461 0.53396,-0.6177 1.03047,-1.63982 1.33759,-2.75358 0.40935,-1.48447 0.48842,-2.7565 0.48842,-7.85666 0,-5.06615 -0.0823,-6.406836 -0.49171,-8.004446 -0.27045,-1.05547 -0.73257,-2.22522 -1.02694,-2.59945 -0.29437,-0.37422 -0.8286,-0.79196 -1.18718,-0.92829 -0.43402,-0.16501 -1.01943,-0.14037 -1.75119,0.0737 -0.74266,0.21729 -1.59059,0.81906 -2.61398,1.85514 -0.83312,0.84345 -1.62733,1.53354 -1.76492,1.53354 -0.13759,0 -0.32538,-0.34251 -0.41733,-0.76113 -0.0919,-0.41863 -0.46157,-1.16017 -0.82139,-1.64789 -0.35983,-0.48771 -0.91914,-1.03395 -1.24292,-1.21386 -0.32378,-0.17992 -0.92085,-0.33134 -1.32683,-0.3365 -0.40598,-0.005 -1.23942,0.2412 -1.85208,0.54746 -0.61267,0.30626 -1.59024,1.01626 -2.17239,1.57778 -0.58214,0.56152 -1.179,0.93602 -1.32635,0.83223 -0.14735,-0.1038 -0.387,-0.54222 -0.53255,-0.97428 -0.14555,-0.43206 -0.56897,-0.95639 -0.94094,-1.16517 -0.40672,-0.22828 -0.9513,-0.31057 -1.3662,-0.20644 -0.49614,0.12452 -0.88179,0.56538 -1.37316,1.56971 -0.43979,0.89889 -0.78741,2.24239 -0.97549,3.770126 -0.17325,1.40723 -0.23777,4.52796 -0.15849,7.66525 0.093,3.67838 0.26298,5.7576 0.55769,6.81995 0.23317,0.84056 0.60905,1.81079 0.83528,2.15606 0.22623,0.34527 0.74082,0.76425 1.14353,0.93105 0.48336,0.20022 0.95106,0.21963 1.37617,0.0571 0.35417,-0.1354 0.88208,-0.51026 1.17312,-0.83303 0.41821,-0.4638 0.52844,-0.9556 0.52568,-2.34546 -0.002,-0.96724 -0.10601,-3.06831 -0.23131,-4.66904 -0.18663,-2.38409 -0.14905,-3.22142 0.20781,-4.6302 0.2396,-0.94589 0.65312,-2.01745 0.91894,-2.38125 0.26581,-0.36381 0.79094,-0.69836 1.16694,-0.74346 0.49139,-0.059 0.77928,0.0899 1.02372,0.52916 0.23415,0.42081 0.39407,2.54784 0.51345,6.82888 0.10551,3.78382 0.29697,6.52842 0.4891,7.01146 0.17364,0.43656 0.56666,1.06164 0.87338,1.38906 0.30671,0.32742 0.6638,0.59531 0.79352,0.59531 z m 29.12715,0.5124 c -0.41138,-0.009 -1.04317,-0.13456 -1.40398,-0.27852 -0.36081,-0.14395 -0.86449,-0.45041 -1.1193,-0.68101 -0.25481,-0.23059 -0.53722,-0.81334 -0.62757,-1.29499 l -0.16429,-0.87572 -1.00583,0.66563 c -0.55321,0.36609 -1.5721,0.83605 -2.26419,1.04434 -0.6921,0.20829 -1.83857,0.37871 -2.54772,0.37871 -0.70915,0 -1.73203,-0.18491 -2.27306,-0.41091 -0.54102,-0.226 -1.32221,-0.73202 -1.73596,-1.12448 -0.41375,-0.39247 -1.05694,-1.30888 -1.42931,-2.03649 -0.4954,-0.96802 -0.67378,-1.71908 -0.66492,-2.79966 0.008,-0.9497 0.20705,-1.85887 0.55835,-2.54746 0.30043,-0.5889 1.10852,-1.56566 1.79575,-2.17059 0.68724,-0.60493 1.99644,-1.45634 2.90933,-1.89203 0.9129,-0.43568 2.57837,-1.02708 3.70105,-1.31421 1.12268,-0.28713 2.07742,-0.55825 2.12165,-0.60247 0.0442,-0.0442 -0.041,-0.52002 -0.18932,-1.0573 -0.18126,-0.65646 -0.52174,-1.10721 -1.03803,-1.37419 -0.42256,-0.21851 -1.00672,-0.3973 -1.29815,-0.3973 -0.29142,0 -0.86288,0.14657 -1.26991,0.3257 -0.40703,0.17914 -1.26937,0.65539 -1.91633,1.05834 -0.81542,0.50788 -1.52933,0.73263 -2.32713,0.73263 -0.88476,0 -1.30892,-0.15807 -1.83451,-0.68366 l -0.68365,-0.68365 0.15984,-1.349646 c 0.10931,-0.92293 0.39765,-1.64345 0.912,-2.27895 0.41369,-0.51113 1.51802,-1.35232 2.45407,-1.86931 l 1.70191,-0.93999 2.94869,0.0466 c 2.36156,0.0373 3.15179,0.15135 3.96875,0.57289 0.56103,0.28949 1.45038,0.98292 1.97631,1.54095 0.52595,0.55804 1.27638,1.68354 1.66765,2.50112 0.39126,0.81758 0.95651,2.663036 1.25609,4.101036 0.41637,1.99855 0.55333,3.7054 0.58132,7.24474 0.0252,3.19055 -0.0729,4.99284 -0.31558,5.7965 -0.1937,0.64146 -0.69056,1.50466 -1.10412,1.91823 -0.48706,0.48705 -1.01543,0.74603 -1.4999,0.73517 z m -0.21152,-0.51339 c 0.29505,5.3e-4 0.79114,-0.1774 1.10243,-0.39544 0.31129,-0.21804 0.78427,-0.96218 1.05106,-1.65365 0.40881,-1.05954 0.48066,-1.98519 0.45702,-5.88742 -0.0217,-3.59186 -0.14965,-5.19388 -0.57031,-7.14375 -0.29825,-1.38244 -0.74032,-2.93026 -0.98239,-3.439576 -0.24207,-0.50932 -0.60913,-1.23703 -0.81568,-1.61712 -0.20655,-0.38009 -0.8953,-1.17016 -1.53055,-1.75571 -0.83445,-0.76917 -1.53649,-1.14646 -2.52963,-1.35945 -0.75605,-0.16214 -2.07869,-0.2948 -2.93919,-0.2948 -0.94868,0 -2.15763,0.2219 -3.07119,0.5637 -0.93006,0.34798 -1.94013,0.9972 -2.63939,1.69646 -0.74519,0.74519 -1.195,1.46452 -1.31466,2.10238 -0.10101,0.53843 -0.0587,1.240036 0.0952,1.577706 0.15238,0.33445 0.63758,0.73377 1.07822,0.88737 0.71139,0.24799 1.05858,0.14794 3.09842,-0.89292 1.2635,-0.64471 2.64655,-1.172196 3.07346,-1.172196 0.42691,0 1.03626,0.13299 1.35411,0.29555 0.31786,0.162546 0.78363,0.549496 1.03506,0.859886 0.26547,0.32773 0.4596,1.02378 0.46302,1.66012 l 0.006,1.09577 -1.85497,0.41891 c -1.02024,0.2304 -2.72839,0.82245 -3.7959,1.31566 -1.0675,0.49322 -2.44404,1.35131 -3.05898,1.90686 -0.61493,0.55556 -1.33302,1.43494 -1.59577,1.95419 -0.26274,0.51925 -0.56128,1.33124 -0.66341,1.80442 -0.12092,0.56018 -0.0266,1.33941 0.27039,2.23352 0.30477,0.91757 0.87235,1.78943 1.71065,2.62773 0.8603,0.8603 1.56324,1.31246 2.23688,1.43883 0.54029,0.10136 1.63068,0.11737 2.42309,0.0356 0.94308,-0.0973 2.03394,-0.47476 3.15807,-1.09266 0.94454,-0.51918 1.76818,-0.94397 1.83032,-0.94397 0.0621,0 0.24269,0.48168 0.40122,1.0704 0.20161,0.74875 0.54258,1.22549 1.13467,1.58651 0.46555,0.28387 1.08785,0.51656 1.38289,0.5171 z m -6.95826,-6.35159 c -0.945,0.002 -1.17871,-0.104 -1.42659,-0.64804 -0.23637,-0.51876 -0.20951,-0.7833 0.13252,-1.3053 0.23593,-0.36007 0.82052,-0.95333 1.29909,-1.31836 0.47858,-0.36502 1.4297,-0.81334 2.11361,-0.99626 0.68391,-0.18292 1.29534,-0.27914 1.35874,-0.21383 0.0634,0.0653 0.1999,0.80253 0.30334,1.63826 l 0.18808,1.51951 -1.41932,0.66072 c -0.80995,0.37704 -1.90453,0.66182 -2.54947,0.6633 z m 0.73084,-0.52888 c 0.36514,-0.10637 1.11038,-0.38142 1.65609,-0.61122 l 0.99218,-0.41782 v -1.05621 c 0,-0.58093 -0.12821,-1.13546 -0.28491,-1.23231 -0.1567,-0.0969 -0.806,0.0229 -1.44288,0.26614 -0.63688,0.24323 -1.5207,0.85537 -1.96404,1.36031 -0.44335,0.50494 -0.80608,1.03683 -0.80608,1.18197 0,0.14515 0.26679,0.3626 0.59287,0.48322 0.32608,0.12063 0.89162,0.13229 1.25677,0.0259 z m 54.50661,7.28282 c -0.50932,0.0654 -1.22125,-0.004 -1.58206,-0.15515 -0.36081,-0.15074 -0.8645,-0.46274 -1.1193,-0.69334 -0.25481,-0.23059 -0.53811,-0.81809 -0.62956,-1.30553 l -0.16626,-0.88627 -0.65462,0.51492 c -0.36004,0.28321 -1.30405,0.75791 -2.09779,1.05488 -0.86409,0.3233 -2.08043,0.53997 -3.03129,0.53997 -1.05411,0 -1.92925,-0.17404 -2.60263,-0.51757 -0.55798,-0.28466 -1.33283,-0.89587 -1.7219,-1.35824 -0.38906,-0.46238 -0.93982,-1.29629 -1.2239,-1.85315 -0.33952,-0.66551 -0.51453,-1.53742 -0.51071,-2.54436 0.003,-0.91188 0.20308,-1.96621 0.49322,-2.60499 0.26808,-0.59021 1.00961,-1.52376 1.64784,-2.07457 0.63823,-0.55081 1.97964,-1.4167 2.9809,-1.92419 1.00127,-0.50749 2.64202,-1.13135 3.64612,-1.38634 1.0041,-0.25499 1.92983,-0.57309 2.05717,-0.70688 0.13285,-0.13958 0.10121,-0.63499 -0.0743,-1.1624 -0.16817,-0.50553 -0.60343,-1.07504 -0.96723,-1.26557 -0.38569,-0.202 -1.07054,-0.28704 -1.64267,-0.20397 -0.53967,0.0784 -1.67077,0.55827 -2.51355,1.06646 -1.11727,0.67371 -1.84017,0.92417 -2.66883,0.92467 -0.869,5.3e-4 -1.29693,-0.15974 -1.81808,-0.68089 -0.58809,-0.5881 -0.66302,-0.84621 -0.54627,-1.881956 0.0815,-0.72329 0.43606,-1.62595 0.89204,-2.27114 0.45039,-0.63729 1.38337,-1.4167 2.30464,-1.9253 0.85135,-0.47 2.2446,-0.99161 3.0961,-1.15914 0.8851,-0.17413 2.14859,-0.22595 2.95001,-0.12099 0.771,0.10098 1.89032,0.39176 2.48738,0.64619 0.59707,0.25442 1.4965,0.82338 1.99876,1.26437 0.50225,0.44098 1.24032,1.46989 1.64015,2.28645 0.39984,0.81656 0.9603,2.396956 1.24548,3.511986 0.28517,1.11503 0.65061,3.46138 0.81208,5.21411 0.16147,1.75273 0.22561,4.31788 0.14254,5.70032 -0.0831,1.38245 -0.28163,2.95983 -0.44126,3.5053 -0.15963,0.54546 -0.55258,1.29362 -0.87323,1.66257 -0.349,0.40158 -0.95469,0.71856 -1.50904,0.78974 z m -0.44563,-0.41813 c 0.26423,0.009 0.72192,-0.11247 1.01708,-0.27044 0.29516,-0.15796 0.78644,-0.84257 1.09174,-1.52135 0.441,-0.98052 0.57712,-1.91383 0.66234,-4.54144 0.0675,-2.0825 -0.0428,-4.43409 -0.29794,-6.35 -0.22286,-1.67349 -0.65234,-3.83467 -0.9544,-4.80263 -0.30207,-0.967946 -0.935,-2.333696 -1.40652,-3.034996 -0.47151,-0.70129 -1.39628,-1.60668 -2.05505,-2.01198 -0.65876,-0.40529 -1.87915,-0.87983 -2.71198,-1.05451 -1.1781,-0.24711 -1.85042,-0.2471 -3.02877,6e-5 -0.833,0.17473 -2.15535,0.6419 -2.93855,1.03816 -0.7832,0.39627 -1.76813,1.13797 -2.18874,1.64824 -0.42061,0.51027 -0.83597,1.30748 -0.92304,1.77158 -0.0871,0.46411 -0.079,1.093606 0.0179,1.398896 0.0969,0.30529 0.53665,0.74148 0.97723,0.96931 l 0.80105,0.41424 2.42134,-1.21398 c 1.33174,-0.66769 2.75468,-1.212586 3.16209,-1.210886 0.40741,0.002 1.08848,0.18291 1.51351,0.402696 0.42502,0.21979 0.89536,0.62868 1.04519,0.90865 0.14984,0.27997 0.27243,0.98365 0.27243,1.56374 v 1.0547 l -0.8599,0.17175 c -0.47294,0.0945 -1.77576,0.4686 -2.89514,0.83142 -1.11939,0.36281 -2.73337,1.11087 -3.58662,1.66236 -0.85325,0.55148 -1.92117,1.45133 -2.37315,1.99966 -0.45198,0.54834 -0.95621,1.5308 -1.1205,2.18325 -0.24269,0.96382 -0.21934,1.45927 0.12451,2.64208 0.31333,1.07781 0.75481,1.7874 1.70028,2.73288 0.88038,0.88037 1.58221,1.33431 2.25941,1.46135 0.54028,0.10136 1.63067,0.11737 2.42308,0.0356 0.94489,-0.0975 2.03473,-0.47519 3.16663,-1.09736 0.94924,-0.52177 1.837,-0.88 1.97281,-0.79606 0.13581,0.0839 0.24692,0.41674 0.24692,0.73958 0,0.32283 0.19134,0.86014 0.42519,1.19401 0.23385,0.33387 0.68033,0.71 0.99219,0.83585 0.31185,0.12584 0.78318,0.23636 1.04741,0.24558 z m -6.85246,-6.33581 c -0.59421,0.001 -1.15976,-0.0768 -1.25677,-0.17381 -0.097,-0.097 -0.17639,-0.56398 -0.17639,-1.03771 0,-0.679 0.22638,-1.0551 1.06941,-1.7767 0.58817,-0.50346 1.61685,-1.06865 2.28594,-1.25599 l 1.21653,-0.3406 0.35989,0.49218 c 0.19794,0.2707 0.3599,1.01069 0.3599,1.64441 v 1.15223 l -1.38907,0.6467 c -0.76398,0.35569 -1.87523,0.64787 -2.46944,0.64929 z m 0.94809,-0.60704 c 0.50932,-0.13338 1.25346,-0.41102 1.65365,-0.61699 0.62954,-0.32401 0.7276,-0.53403 0.7276,-1.55831 0,-0.93347 -0.0942,-1.18383 -0.44563,-1.18383 -0.2451,0 -0.9567,0.2474 -1.58133,0.54978 -0.62463,0.30238 -1.43115,0.90092 -1.79227,1.33008 -0.36112,0.42917 -0.59189,0.9489 -0.51281,1.15495 0.0791,0.20606 0.34198,0.41789 0.58425,0.47074 0.24227,0.0528 0.85722,-0.013 1.36654,-0.14642 z m -128.2243,7.22421 c -0.612968,0 -1.125389,-0.20896 -1.547472,-0.63105 -0.347075,-0.34707 -0.788147,-1.15074 -0.980162,-1.78594 -0.255425,-0.84495 -0.33464,-2.89452 -0.295173,-7.63718 0.02967,-3.56526 0.165984,-8.684946 0.302922,-11.377076 0.193751,-3.80904 0.371783,-5.24693 0.802607,-6.4823 0.352094,-1.00961 0.890533,-1.90052 1.47913,-2.44739 0.599311,-0.55683 1.194051,-0.8599 1.687456,-0.8599 0.419075,0 1.066308,0.23941 1.438297,0.53201 0.371989,0.29261 0.894061,1.09628 1.160161,1.78594 0.406914,1.05461 0.483817,2.04247 0.483817,6.21481 0,2.72848 0.08106,4.960906 0.180142,4.960936 0.09908,3e-5 1.111109,-1.017876 2.248958,-2.262006 1.137849,-1.24413 2.765224,-2.79195 3.616387,-3.43958 1.194206,-0.90865 1.773876,-1.17752 2.538681,-1.17752 0.624152,0 1.153235,0.17914 1.428992,0.48385 0.280899,0.31039 0.437882,0.94442 0.437882,1.76855 0,0.74063 -0.222384,1.74408 -0.525112,2.36943 -0.288811,0.5966 -1.412481,2.196126 -2.497044,3.554506 l -1.971932,2.46977 0.617463,0.97813 c 0.339605,0.53797 1.10595,1.94967 1.702989,3.13713 0.597039,1.18745 1.395361,3.08198 1.774049,4.21007 0.469949,1.39996 0.64515,2.37446 0.551895,3.06973 -0.07515,0.56026 -0.343767,1.24753 -0.596934,1.52728 -0.316637,0.34988 -0.811465,0.50863 -1.585404,0.50863 h -1.125099 l -1.239414,-1.37853 c -0.790578,-0.87931 -1.829467,-2.59938 -2.868789,-4.7498 -0.896157,-1.85421 -1.723495,-3.377 -1.838528,-3.38398 -0.115033,-0.007 -0.561517,0.24783 -0.992187,0.56623 l -0.783037,0.57893 v 1.48915 c 0,0.81903 -0.129714,2.19083 -0.288254,3.04845 -0.158539,0.85763 -0.569735,2.11479 -0.913767,2.79371 -0.344033,0.67891 -0.819369,1.30878 -1.056302,1.3997 -0.236934,0.0909 -0.843182,0.16531 -1.347218,0.16531 z m -0.08512,-0.52917 c 0.448268,0 1.036594,-0.11858 1.307391,-0.2635 0.270797,-0.14493 0.754051,-0.9486 1.073899,-1.78594 0.392402,-1.02728 0.625037,-2.3549 0.715277,-4.08198 l 0.133736,-2.55954 1.133328,-0.8139 c 0.623331,-0.44764 1.232927,-0.81208 1.354659,-0.80987 0.121731,0.002 0.695233,1.10049 1.274447,2.44064 0.579215,1.34014 1.604083,3.27309 2.277484,4.29546 0.673401,1.02236 1.532702,2.14161 1.909556,2.48722 0.376855,0.34562 1.011668,0.62839 1.410696,0.62839 0.431788,0 0.919428,-0.23949 1.204513,-0.59155 0.263455,-0.32536 0.479009,-0.93931 0.479009,-1.36434 0,-0.42503 -0.248849,-1.51317 -0.552998,-2.41808 -0.304149,-0.90492 -1.055408,-2.65733 -1.669465,-3.89426 -0.614057,-1.23693 -1.449435,-2.81681 -1.856396,-3.51085 -0.498767,-0.85061 -0.658569,-1.36802 -0.490302,-1.5875 0.137295,-0.17909 1.041325,-1.30947 2.008955,-2.51198 0.96763,-1.2025 1.984527,-2.631246 2.25977,-3.174996 0.275243,-0.54374 0.585026,-1.38042 0.688406,-1.85928 0.132399,-0.61326 0.06193,-1.06301 -0.238393,-1.52135 -0.280791,-0.42854 -0.672696,-0.65037 -1.147864,-0.64972 -0.396827,5.5e-4 -1.138223,0.25312 -1.647546,0.56127 -0.509323,0.30816 -2.235729,1.91718 -3.836459,3.57561 -1.600729,1.658426 -3.04575,3.013196 -3.211157,3.010596 -0.210865,-0.003 -0.336593,-1.64542 -0.420709,-5.494816 -0.07553,-3.45653 -0.240172,-5.78412 -0.444488,-6.28386 -0.178486,-0.43656 -0.575468,-1.06164 -0.882183,-1.38906 -0.306714,-0.32742 -0.87182,-0.59531 -1.255791,-0.59531 -0.421725,0 -0.983409,0.29777 -1.418678,0.75209 -0.396303,0.41365 -0.951564,1.36007 -1.233913,2.10315 -0.283499,0.74611 -0.627142,2.63067 -0.767469,4.20885 -0.139759,1.57178 -0.335119,6.373256 -0.434134,10.669946 -0.126306,5.48099 -0.08989,8.24633 0.122019,9.26712 0.166125,0.80022 0.535532,1.83888 0.820906,2.30814 0.403966,0.66427 0.699339,0.8532 1.333894,0.8532 z m 103.14442,0.52917 c -0.78989,0 -1.11232,-0.14616 -1.44604,-0.65549 -0.23622,-0.36052 -0.53379,-1.10466 -0.66125,-1.65365 -0.12746,-0.54898 -0.23241,-1.71253 -0.23322,-2.58566 -7.9e-4,-0.87312 0.17676,-2.83765 0.3946,-4.36562 0.21784,-1.52797 0.40283,-3.73063 0.4111,-4.89479 0.008,-1.16417 -0.0623,-2.31582 -0.15679,-2.55923 -0.0945,-0.24341 -0.3563,-0.51336 -0.58177,-0.59988 -0.22547,-0.0865 -0.58274,-0.0139 -0.79393,0.16136 -0.21119,0.17527 -0.69762,0.92147 -1.08096,1.65821 l -0.69697,1.33954 -0.15924,5.02708 c -0.12605,3.9791 -0.2583,5.26171 -0.63443,6.15255 -0.26135,0.619 -0.8284,1.42268 -1.26011,1.78594 -0.50977,0.42894 -1.10957,0.66047 -1.71102,0.66047 -0.66257,0 -1.13792,-0.21182 -1.67049,-0.74439 -0.49875,-0.49876 -0.83987,-1.21905 -1.03375,-2.18281 -0.16369,-0.81371 -0.31528,-5.05812 -0.34905,-9.7728 l -0.0597,-8.334376 0.562,-1.22591 c 0.30909,-0.67426 0.83679,-1.4184 1.17266,-1.65365 0.33586,-0.23525 1.01265,-0.42773 1.50397,-0.42773 0.65318,0 1.09442,0.2153 1.64147,0.80091 0.41149,0.4405 0.82143,1.13448 0.91097,1.54216 l 0.16281,0.74125 0.93088,-0.87793 c 0.56303,-0.53101 1.51794,-1.0486 2.41649,-1.30981 0.98195,-0.28546 1.97296,-0.38158 2.92311,-0.28352 0.9415,0.0972 1.78655,0.39025 2.44911,0.84941 0.56255,0.38985 1.24435,1.19618 1.53592,1.81647 0.28837,0.61349 0.65372,1.81545 0.81188,2.67101 0.15816,0.855566 0.28756,2.656176 0.28756,4.001376 0,1.34519 -0.12714,3.35994 -0.28254,4.47723 -0.1554,1.11729 -0.51329,2.9416 -0.7953,4.05404 -0.28201,1.11244 -0.87447,2.76223 -1.31658,3.6662 -0.44211,0.90398 -1.11232,1.88624 -1.48935,2.18281 -0.41961,0.33007 -1.07982,0.53923 -1.70206,0.53923 z m 0.0223,-0.26558 c 0.0768,-5.3e-4 0.52234,-0.23437 0.99017,-0.51962 0.47842,-0.29171 1.13645,-1.08271 1.50387,-1.80779 0.3593,-0.70904 0.89474,-2.05278 1.18988,-2.98611 0.29514,-0.93332 0.73317,-2.76851 0.97342,-4.0782 0.31981,-1.74345 0.4072,-3.37337 0.32627,-6.08541 l -0.11054,-3.704166 -0.77925,-1.56751 c -0.61819,-1.24354 -1.02027,-1.69469 -1.94534,-2.18282 -0.78202,-0.41263 -1.60992,-0.61444 -2.51355,-0.61271 -0.85696,0.002 -1.8366,0.23036 -2.69123,0.62831 -0.73908,0.34415 -1.58965,0.9383 -1.89016,1.32033 -0.30051,0.38204 -0.66883,0.69461 -0.81851,0.69461 -0.14967,0 -0.40585,-0.40519 -0.5693,-0.90042 -0.16344,-0.49524 -0.5837,-1.20961 -0.93392,-1.5875 -0.40089,-0.43257 -0.91838,-0.68708 -1.39703,-0.68708 -0.45426,0 -0.97457,0.23961 -1.29273,0.59531 -0.29285,0.32742 -0.70056,1.01203 -0.90601,1.52136 -0.29795,0.73863 -0.36427,2.6185 -0.32771,9.289006 0.0291,5.30969 0.15656,8.77418 0.34911,9.48927 0.16681,0.61946 0.58725,1.41027 0.93433,1.75734 0.34707,0.34707 0.92497,0.63104 1.28423,0.63104 0.35925,0 1.01754,-0.30659 1.46288,-0.68131 0.50355,-0.42371 0.97224,-1.19901 1.2396,-2.05052 0.30608,-0.97481 0.45567,-2.66801 0.51932,-5.8782 0.0769,-3.87907 0.16781,-4.69227 0.6506,-5.82084 0.30865,-0.72151 0.81205,-1.57973 1.11865,-1.90715 0.30661,-0.32742 0.7662,-0.59531 1.02131,-0.59531 0.25512,0 0.71061,0.31371 1.01222,0.69714 0.4603,0.58518 0.54702,1.0632 0.53998,2.97656 -0.005,1.25368 -0.18089,3.47005 -0.39173,4.92526 -0.21084,1.45521 -0.38566,3.39678 -0.38849,4.31461 -0.003,0.91782 0.12902,2.20157 0.29299,2.85276 0.16397,0.6512 0.54765,1.35877 0.85262,1.57237 0.30497,0.21361 0.61729,0.38794 0.69406,0.38739 z m -70.786159,-0.26794 c -0.859227,-0.003 -1.664515,-0.20768 -2.355636,-0.59912 -0.577556,-0.32712 -1.496356,-1.1852 -2.041774,-1.90684 -0.54542,-0.72164 -1.291159,-2.12005 -1.657202,-3.10758 -0.36604,-0.98753 -0.796036,-2.59803 -0.955545,-3.57891 -0.169315,-1.04117 -0.21462,-2.71366 -0.108855,-4.01856 0.09964,-1.22933 0.350732,-2.89621 0.557985,-3.70416 0.207251,-0.80796 0.674397,-2.083446 1.038101,-2.834416 0.363704,-0.75096 1.127239,-1.78635 1.696741,-2.30086 0.569502,-0.51451 1.531863,-1.06915 2.138585,-1.23252 0.606719,-0.16337 1.570757,-0.21804 2.142305,-0.12147 0.571547,0.0966 1.624171,0.56924 2.339163,1.05039 l 1.299991,0.87483 0.13343,-1.09832 c 0.0734,-0.60408 0.20384,-2.4292 0.28988,-4.05584 0.0861,-1.62664 0.26681,-3.34234 0.4017,-3.81268 0.13489,-0.47034 0.50527,-1.13193 0.82306,-1.4702 0.31779,-0.33827 0.95623,-0.68603 1.41876,-0.7728 0.49894,-0.0936 1.22781,0.004 1.79219,0.23969 0.56528,0.23619 1.14624,0.7548 1.43183,1.27819 0.40835,0.74833 0.4762,1.4774 0.45133,4.84949 -0.0161,2.18281 -0.049,8.355676 -0.0732,13.717496 -0.0344,7.64124 -0.12334,9.93886 -0.41135,10.62818 -0.2021,0.48369 -0.60783,1.00808 -0.90163,1.16531 -0.29378,0.15724 -0.84556,0.28588 -1.22616,0.28588 -0.38059,0 -1.03617,-0.17798 -1.45684,-0.39552 -0.42067,-0.21753 -0.96734,-0.73831 -1.21484,-1.15728 l -0.44999,-0.76177 -0.76802,0.87473 c -0.42241,0.4811 -1.27663,1.12094 -1.898266,1.42187 -0.681363,0.32984 -1.648736,0.54541 -2.435768,0.54279 z m 0.09408,-0.52645 c 0.624261,8e-4 1.588034,-0.22948 2.141717,-0.51195 0.553683,-0.28246 1.378742,-0.93731 1.833462,-1.45521 0.45471,-0.51789 1.009,-0.94162 1.23173,-0.94162 0.22271,0 0.40495,0.18775 0.40495,0.41722 0,0.22948 0.35532,0.77256 0.78961,1.20685 0.64513,0.64513 0.97192,0.77454 1.78594,0.70725 0.84916,-0.0702 1.06598,-0.22483 1.46793,-1.04692 l 0.4716,-0.96455 0.0919,-13.17623 c 0.0594,-8.513566 -0.004,-13.462206 -0.17835,-13.984396 -0.14864,-0.4445 -0.44834,-1.01421 -0.66599,-1.26603 -0.21765,-0.25181 -0.79662,-0.53305 -1.28662,-0.62498 -0.61947,-0.11621 -1.09878,-0.0309 -1.57326,0.27999 -0.37533,0.24592 -0.84805,0.8436 -1.05053,1.32819 -0.20247,0.48458 -0.48834,2.64821 -0.63526,4.80806 -0.14692,2.15985 -0.26898,4.24389 -0.27123,4.6312 -0.003,0.46312 -0.13541,0.68492 -0.38767,0.64789 -0.21098,-0.031 -0.62504,-0.36325 -0.92015,-0.73843 -0.29511,-0.37517 -1.073704,-0.93461 -1.730207,-1.2432 -0.6565,-0.3086 -1.522357,-0.55847 -1.924124,-0.55527 -0.40177,0.003 -1.211665,0.22438 -1.799767,0.49152 -0.588103,0.26714 -1.397466,0.87573 -1.798585,1.35243 -0.401116,0.4767 -0.952617,1.30446 -1.225553,1.83946 -0.272936,0.535 -0.693187,1.732736 -0.933889,2.661636 -0.240702,0.9289 -0.499772,2.70769 -0.575707,3.95288 -0.09394,1.54031 -0.004,2.89826 0.281395,4.24834 0.230703,1.09141 0.829776,2.81782 1.33127,3.83646 0.501494,1.01865 1.247293,2.17198 1.657329,2.56296 0.410035,0.39098 1.102706,0.89626 1.539269,1.12285 0.436562,0.22658 1.304509,0.41271 1.92877,0.4136 z m 0.734462,-5.8192 c -0.373369,0 -0.906531,-0.22768 -1.184807,-0.50596 -0.284998,-0.28499 -0.704609,-1.39886 -0.960842,-2.55058 -0.316079,-1.42071 -0.405117,-2.57761 -0.291788,-3.79122 0.100388,-1.07504 0.352833,-2.00181 0.656564,-2.41036 0.357309,-0.48061 0.786418,-0.68571 1.555218,-0.74334 0.836612,-0.0627 1.240224,0.0706 1.903381,0.62859 0.462894,0.3895 1.058271,1.13969 1.323041,1.66709 0.29004,0.57769 0.53769,1.81578 0.62296,3.11429 l 0.14154,2.15538 -0.96529,0.92219 c -0.53091,0.5072 -1.225351,1.05533 -1.543206,1.21805 -0.317855,0.16273 -0.883401,0.29587 -1.256771,0.29587 z m -0.125497,-0.52917 c 0.296873,0 0.79983,-0.13335 1.117685,-0.29633 0.317854,-0.16298 0.954188,-0.65223 1.414069,-1.08722 l 0.83616,-0.79089 0.0169,-1.80356 c 0.0151,-1.60818 -0.0755,-1.94073 -0.83616,-3.0697 -0.46917,-0.69637 -1.242196,-1.49136 -1.717834,-1.76664 l -0.864796,-0.50051 -0.64343,0.42159 c -0.353886,0.23188 -0.767736,0.8692 -0.919665,1.41628 -0.151929,0.54708 -0.2769,1.49485 -0.27771,2.10615 -7.93e-4,0.6113 0.132067,1.74239 0.295283,2.51354 0.163219,0.77115 0.463934,1.72951 0.668253,2.12969 0.221885,0.43458 0.588873,0.7276 0.91126,0.7276 z m -13.591829,6.35 c -0.52841,0 -1.070689,-0.1919 -1.308405,-0.46302 -0.223287,-0.25466 -0.587835,-0.82261 -0.810107,-1.26211 -0.222272,-0.43949 -0.534286,-1.50316 -0.693364,-2.36369 -0.159079,-0.86054 -0.287167,-4.01329 -0.28464,-7.00612 0.0031,-3.66174 0.126818,-6.01819 0.378283,-7.204636 0.205529,-0.96972 0.574576,-2.16034 0.820105,-2.64583 0.245529,-0.48549 0.691369,-1.1506 0.990754,-1.47802 0.396578,-0.43372 0.841472,-0.59532 1.638953,-0.59532 0.732101,0 1.28439,0.17681 1.667644,0.53386 0.315167,0.29362 0.782426,1.21636 1.038358,2.05052 0.395668,1.28963 0.45839,2.46812 0.418994,7.872556 -0.03196,4.38415 -0.166106,6.93032 -0.432411,8.20753 -0.212342,1.0184 -0.649878,2.29874 -0.972302,2.84521 -0.322424,0.54647 -0.802947,1.10957 -1.067829,1.25133 -0.264883,0.14176 -0.887697,0.25774 -1.384033,0.25774 z m -0.0096,-0.26458 c 0.06036,0 0.43254,-0.16692 0.827061,-0.37094 0.394522,-0.20401 0.970834,-0.82909 1.280692,-1.38906 0.309862,-0.55997 0.691198,-1.62885 0.847416,-2.37529 0.156218,-0.74644 0.36191,-3.723 0.457091,-6.61458 0.112239,-3.40971 0.06865,-5.98829 -0.124036,-7.337006 -0.163404,-1.14377 -0.483423,-2.47224 -0.711155,-2.95215 -0.235514,-0.49631 -0.755592,-1.01403 -1.206096,-1.20064 -0.688544,-0.2852 -0.884909,-0.26038 -1.50279,0.19 -0.390915,0.28494 -0.966399,1.04378 -1.278854,1.6863 -0.312456,0.64253 -0.711297,2.00536 -0.886313,3.028506 -0.211045,1.23379 -0.279169,3.86456 -0.202281,7.81164 0.09377,4.81398 0.204738,6.19162 0.580622,7.20861 0.255581,0.69149 0.767138,1.49516 1.136793,1.78594 0.369655,0.29077 0.721488,0.52867 0.78185,0.52867 z m 94.500143,0.26458 c -0.68191,0 -1.16673,-0.18097 -1.53031,-0.57123 -0.2927,-0.31417 -0.74382,-1.17737 -1.0025,-1.91823 -0.40664,-1.16463 -0.47031,-2.33207 -0.47031,-8.62304 v -7.276036 l 0.59237,-1.56995 c 0.3258,-0.86347 0.91362,-1.90526 1.30627,-2.3151 0.5577,-0.58212 0.95349,-0.74516 1.80891,-0.74516 0.79606,0 1.24528,0.16252 1.64548,0.59532 0.30276,0.32742 0.74023,1.242 0.97216,2.03239 0.3318,1.13075 0.42057,2.70997 0.41644,7.408336 -0.003,3.28418 -0.12385,6.79183 -0.26883,7.79477 -0.14497,1.00294 -0.48492,2.3239 -0.75544,2.93546 -0.27053,0.61156 -0.76732,1.36855 -1.10398,1.6822 -0.40254,0.37503 -0.95385,0.57027 -1.61026,0.57027 z m -0.0439,-0.26458 c 0.0604,0 0.4456,-0.17368 0.85608,-0.38595 0.4244,-0.21946 0.98084,-0.88483 1.28997,-1.54248 0.299,-0.63609 0.67422,-1.87666 0.83383,-2.75682 0.1596,-0.88015 0.31539,-4.32346 0.34619,-7.65179 0.0473,-5.112226 -0.0156,-6.284936 -0.40502,-7.555496 -0.2859,-0.93269 -0.72494,-1.71159 -1.15582,-2.05052 -0.38213,-0.30059 -0.84819,-0.54652 -1.03568,-0.54652 -0.1875,0 -0.70051,0.30259 -1.14005,0.67244 -0.45006,0.3787 -1.03573,1.30475 -1.34074,2.11999 -0.29788,0.79616 -0.6608,2.487846 -0.80649,3.759326 -0.14568,1.27148 -0.26488,3.62147 -0.26488,5.22219 0,1.60073 0.11949,3.95332 0.26554,5.22798 0.14605,1.27466 0.45655,2.79494 0.69,3.37839 0.23345,0.58346 0.72435,1.29673 1.09089,1.58505 0.36653,0.28831 0.71582,0.52421 0.77618,0.52421 z M 84.145834,92.533164 c -0.511761,0 -1.055548,-0.24128 -1.463707,-0.64944 -0.357187,-0.35718 -0.649432,-0.88736 -0.649432,-1.17817 0,-0.29081 0.129209,-0.81233 0.287129,-1.15892 0.157921,-0.3466 0.622776,-0.82846 1.033011,-1.07079 0.424885,-0.25098 1.30846,-0.4406 2.053114,-0.4406 0.930406,0 1.433458,0.13948 1.745114,0.48385 0.240837,0.26612 0.437883,0.83494 0.437883,1.26405 0,0.4291 -0.194154,1.05738 -0.431454,1.39618 -0.237299,0.33879 -0.828789,0.782 -1.314419,0.98491 -0.485631,0.20291 -1.249388,0.36893 -1.697239,0.36893 z m 0.287855,-0.52917 c 0.382664,0 1.100312,-0.27169 1.594776,-0.60376 0.639776,-0.42965 0.921993,-0.83671 0.97868,-1.4116 0.04381,-0.44431 -0.07525,-0.93491 -0.264583,-1.09021 -0.189333,-0.15531 -0.582366,-0.30771 -0.873408,-0.33866 -0.291042,-0.031 -0.787922,-0.0426 -1.104179,-0.0258 -0.316257,0.0168 -0.941335,0.33871 -1.389063,0.71545 -0.48455,0.40772 -0.81405,0.93712 -0.81405,1.30791 0,0.34379 0.26351,0.8075 0.588038,1.03481 0.323421,0.22653 0.901126,0.41188 1.283789,0.41188 z m 94.233771,0.52917 c -0.43133,0 -1.09794,-0.24677 -1.48137,-0.54837 -0.49698,-0.39093 -0.69472,-0.78975 -0.68872,-1.38907 0.005,-0.46238 0.15345,-1.02475 0.33072,-1.24971 0.17728,-0.22495 0.6167,-0.61191 0.97651,-0.85989 0.40765,-0.28097 1.16493,-0.45088 2.00951,-0.45088 0.977,0 1.47756,0.13506 1.79321,0.48385 0.24084,0.26612 0.43788,0.83494 0.43788,1.26405 0,0.4291 -0.17447,1.02929 -0.38772,1.33374 -0.21324,0.30445 -0.79678,0.74766 -1.29675,0.98491 -0.49998,0.23725 -1.26194,0.43137 -1.69327,0.43137 z m 0.42916,-0.63315 c 0.48834,-0.075 1.17106,-0.32196 1.51716,-0.54873 0.3461,-0.22678 0.70823,-0.7269 0.80472,-1.11138 0.0965,-0.38448 0.0574,-0.88629 -0.087,-1.11511 -0.14434,-0.22883 -0.54728,-0.4833 -0.89542,-0.56548 -0.34815,-0.0822 -0.95862,-0.10164 -1.35662,-0.0432 -0.398,0.0584 -1.02462,0.38515 -1.3925,0.72608 -0.37053,0.3434 -0.66886,0.91386 -0.66886,1.27898 0,0.38026 0.25184,0.84019 0.59531,1.08718 0.38975,0.28028 0.9019,0.381 1.48319,0.29168 z"
       id="path227"
       inkscape:export-filename="LogoKidmania.svg"
       inkscape:export-xdpi="96"
       inkscape:export-ydpi="96" /><path
       style="fill:none;fill-opacity:1;stroke:none;stroke-width:0.264583;stroke-opacity:1"
       d="m 39.102116,117.85861 c -1.264472,-0.3984 -1.589615,-0.41233 -2.480661,-0.10635 -0.563999,0.19367 -1.405592,0.35214 -1.870207,0.35214 -0.464615,0 -1.456423,-0.18165 -2.204017,-0.40366 -0.747595,-0.22202 -1.865445,-0.78974 -2.484111,-1.26161 -0.642338,-0.48993 -1.441807,-1.46468 -1.863759,-2.27239 -0.517379,-0.99038 -0.738912,-1.80516 -0.738912,-2.71768 0,-0.79346 0.213051,-1.72086 0.544658,-2.37086 0.324571,-0.63622 1.002463,-1.35265 1.677607,-1.77298 1.022455,-0.63657 1.176274,-0.87355 1.577201,-2.42991 0.284687,-1.10513 0.804805,-2.19887 1.44807,-3.04513 l 1.003816,-1.32058 -0.644955,-1.41839 c -0.360556,-0.79293 -0.703332,-2.14562 -0.777339,-3.0676 -0.126705,-1.57847 -0.169591,-1.66267 -0.999768,-1.96287 -0.477062,-0.1725 -1.191584,-0.56866 -1.587827,-0.88035 -0.396243,-0.31168 -0.940995,-1.0523 -1.210559,-1.64583 -0.269563,-0.59352 -0.49273,-1.52943 -0.495926,-2.07981 -0.0032,-0.55038 0.178465,-1.44172 0.403692,-1.98076 0.225227,-0.53905 0.671711,-1.26053 0.992187,-1.6033 0.320477,-0.34277 0.82081,-0.7522 1.111852,-0.90983 0.291041,-0.15764 0.983824,-0.37034 1.539517,-0.47267 0.555692,-0.10233 1.496292,-0.0769 2.090222,0.0566 0.593929,0.13345 1.407022,0.47558 1.806872,0.7603 0.727001,0.51767 0.727001,0.51767 2.539986,-0.34098 1.686724,-0.79886 2.006464,-0.85865 4.591111,-0.85865 2.584648,0 2.904388,0.0598 4.591112,0.85865 1.812985,0.85865 1.812985,0.85865 2.540468,0.34064 0.400116,-0.28491 1.267629,-0.63907 1.927807,-0.78702 0.918319,-0.20579 1.505037,-0.1785 2.497302,0.11617 0.713335,0.21184 1.613273,0.71538 1.999858,1.11898 0.386586,0.4036 0.887794,1.17649 1.113793,1.71751 0.226002,0.54103 0.408297,1.434 0.405101,1.98438 -0.0032,0.55038 -0.226364,1.48629 -0.495927,2.07981 -0.269566,0.59353 -0.814316,1.33415 -1.210559,1.64583 -0.396243,0.31169 -1.110766,0.70785 -1.587826,0.88035 -0.830177,0.3002 -0.873064,0.3844 -0.999767,1.96287 -0.07401,0.92198 -0.416785,2.27467 -0.777341,3.0676 l -0.644956,1.41839 1.003816,1.32058 c 0.643265,0.84626 1.163383,1.94 1.44807,3.04513 0.400928,1.55636 0.554746,1.79334 1.577202,2.42991 0.675143,0.42033 1.353037,1.13676 1.677607,1.77298 0.331607,0.65 0.544658,1.5774 0.544658,2.37086 0,0.91252 -0.221533,1.7273 -0.738913,2.71768 -0.421952,0.80771 -1.22142,1.78246 -1.863759,2.27239 -0.618665,0.47187 -1.736516,1.03959 -2.48411,1.26161 -0.747593,0.22201 -1.784138,0.39693 -2.303428,0.38872 -0.519292,-0.008 -1.360884,-0.16193 -1.870207,-0.34158 -0.780215,-0.27521 -1.176031,-0.25235 -2.513542,0.1452 -1.051948,0.31267 -2.390828,0.46379 -3.96875,0.44794 -1.458743,-0.0147 -2.945005,-0.20154 -3.836459,-0.48241 z m 7.67345,-0.52772 c 1.501256,-0.46725 1.725301,-0.4764 2.735553,-0.11173 0.738476,0.26657 1.562936,0.3455 2.506826,0.23999 0.773549,-0.0865 1.964175,-0.44113 2.645834,-0.78813 0.681659,-0.347 1.493835,-0.91059 1.804834,-1.25241 0.310999,-0.34183 0.817015,-1.12278 1.124479,-1.73544 0.307465,-0.61267 0.559025,-1.59876 0.559025,-2.19132 0,-0.59255 -0.16596,-1.47457 -0.3688,-1.96003 -0.202843,-0.48547 -0.76839,-1.17841 -1.256771,-1.53988 -0.488384,-0.36146 -1.084463,-0.72606 -1.324623,-0.8102 -0.26847,-0.0941 -0.507897,-0.5932 -0.621625,-1.2959 -0.101738,-0.6286 -0.394074,-1.6252 -0.649637,-2.21468 -0.255564,-0.58948 -0.838809,-1.49791 -1.296101,-2.01873 l -0.83144,-0.94696 0.690612,-1.55314 c 0.405054,-0.91094 0.760402,-2.31015 0.859394,-3.38392 0.160729,-1.74343 0.206655,-1.84287 0.962533,-2.08428 0.436562,-0.13943 1.163947,-0.52925 1.616411,-0.86627 0.452464,-0.33702 1.018011,-1.02443 1.256771,-1.52758 0.23876,-0.50315 0.434109,-1.33556 0.434109,-1.84979 0,-0.51424 -0.126994,-1.27015 -0.282207,-1.67981 -0.155215,-0.40966 -0.542168,-1.02403 -0.859896,-1.36528 -0.31773,-0.34125 -0.925764,-0.80147 -1.35119,-1.02272 -0.425426,-0.22124 -1.327507,-0.40226 -2.004623,-0.40226 -0.677117,0 -1.579198,0.19385 -2.004624,0.43077 -0.425426,0.23692 -0.984142,0.57808 -1.241589,0.75813 -0.383527,0.26823 -0.622517,0.23797 -1.322918,-0.16748 -0.470155,-0.27216 -1.498546,-0.71864 -2.285311,-0.99218 -0.847163,-0.29454 -2.151943,-0.49735 -3.199726,-0.49735 -1.047782,0 -2.352562,0.20281 -3.199725,0.49735 -0.786766,0.27354 -1.815156,0.72002 -2.285311,0.99218 -0.7004,0.40545 -0.939391,0.43571 -1.322917,0.16748 -0.257449,-0.18005 -0.816164,-0.52121 -1.24159,-0.75813 -0.425425,-0.23692 -1.327506,-0.43077 -2.004624,-0.43077 -0.677117,0 -1.594781,0.18805 -2.039253,0.4179 -0.444472,0.22985 -1.115232,0.78287 -1.490578,1.22894 -0.375345,0.44608 -0.761214,1.23091 -0.857485,1.74408 -0.09627,0.51317 -0.105151,1.36371 -0.01973,1.89009 0.08542,0.52638 0.499344,1.38293 0.919832,1.90345 0.441063,0.54598 1.256534,1.12891 1.927432,1.3778 l 1.162907,0.43141 0.168783,1.81755 c 0.09823,1.0578 0.457463,2.46677 0.859394,3.37069 l 0.690612,1.55314 -0.831439,0.94696 c -0.457292,0.52082 -1.040537,1.42925 -1.296101,2.01873 -0.255564,0.58948 -0.546385,1.57712 -0.646271,2.19476 -0.152678,0.94408 -0.327847,1.19237 -1.099582,1.55859 -0.504886,0.23958 -1.229591,0.84416 -1.610458,1.3435 -0.481126,0.63079 -0.727665,1.33213 -0.807749,2.29784 -0.08892,1.07223 0.01913,1.65754 0.472694,2.5606 0.323377,0.64386 0.842414,1.45033 1.153413,1.79216 0.311,0.34182 1.104932,0.89616 1.764293,1.23187 0.659362,0.3357 1.754496,0.69369 2.433633,0.79554 0.761066,0.11412 1.749245,0.0533 2.575734,-0.15851 1.14938,-0.29458 1.557663,-0.28332 2.858034,0.0788 0.834402,0.23233 2.488752,0.43393 3.676334,0.44798 1.450644,0.0172 2.695854,-0.14146 3.794418,-0.48337 z m -6.482825,-1.58012 c -0.577883,-0.12693 -0.78212,-0.31629 -0.750987,-0.6963 0.02352,-0.28707 0.124263,-0.94297 0.223873,-1.45755 0.09961,-0.51458 0.049,-1.42622 -0.112467,-2.02586 -0.16948,-0.62941 -0.797294,-1.65052 -1.485227,-2.41567 l -1.191649,-1.3254 0.543741,-1.45328 c 0.299057,-0.7993 0.714945,-1.59536 0.924196,-1.76902 0.297423,-0.24684 0.651992,-0.22323 1.624641,0.10818 0.684303,0.23317 2.035205,0.42394 3.002004,0.42394 0.9668,0 2.317702,-0.19077 3.002005,-0.42394 0.972649,-0.33141 1.327218,-0.35502 1.624641,-0.10818 0.209251,0.17366 0.625139,0.96972 0.924196,1.76902 l 0.543741,1.45328 -1.191649,1.3254 c -0.687933,0.76515 -1.315747,1.78626 -1.485227,2.41567 -0.161468,0.59964 -0.212078,1.51128 -0.112467,2.02586 0.09961,0.51458 0.200353,1.17048 0.223873,1.45755 0.03113,0.38001 -0.173104,0.56937 -0.750987,0.6963 -0.436563,0.0959 -1.686719,0.17435 -2.778126,0.17435 -1.091406,0 -2.341562,-0.0785 -2.778125,-0.17435 z m 5.097437,-0.4518 c 0.774059,-0.15481 0.79012,-0.18798 0.536265,-1.10737 -0.143931,-0.52127 -0.184322,-1.43172 -0.08976,-2.02322 0.09457,-0.59149 0.451101,-1.55184 0.792303,-2.1341 0.341203,-0.58226 0.870833,-1.28532 1.176956,-1.56236 0.306124,-0.27704 0.553974,-0.69361 0.550779,-0.92572 -0.0032,-0.23211 -0.231594,-0.9193 -0.507551,-1.5271 l -0.501739,-1.10509 -1.254292,0.37748 c -0.689861,0.20762 -2.049884,0.37749 -3.022275,0.37749 -0.97239,0 -2.332413,-0.16987 -3.022274,-0.37749 l -1.254292,-0.37748 -0.501739,1.10509 c -0.275957,0.6078 -0.504355,1.26796 -0.507551,1.46703 -0.0032,0.19907 0.36704,0.7866 0.822746,1.30562 0.455706,0.51902 1.048403,1.42771 1.317106,2.0193 0.268702,0.5916 0.491164,1.43361 0.49436,1.87113 0.0032,0.43753 -0.102952,1.17474 -0.235885,1.63825 -0.214707,0.74863 -0.177774,0.85521 0.330729,0.9544 0.314834,0.0614 1.361214,0.12788 2.32529,0.1477 0.964076,0.0198 2.111946,-0.0358 2.550822,-0.12356 z m -12.820783,-0.24604 c -0.792882,-0.39511 -1.628745,-1.07973 -2.036325,-1.66787 -0.400247,-0.57756 -0.691371,-1.36107 -0.691371,-1.86072 0,-0.47469 0.129246,-1.10456 0.287212,-1.39973 0.157966,-0.29516 0.82205,-0.77324 1.475742,-1.0624 1.048872,-0.46397 1.342014,-0.48892 2.494724,-0.21239 0.932835,0.22378 1.640594,0.63835 2.476082,1.45035 0.762872,0.74143 1.229948,1.45715 1.342521,2.05722 0.116206,0.61943 0.03379,1.18871 -0.252135,1.74163 -0.233623,0.45178 -0.774029,1.00203 -1.200902,1.22277 -0.426872,0.22075 -1.175386,0.40135 -1.663363,0.40135 -0.487977,0 -1.492461,-0.30159 -2.232185,-0.67021 z m 4.349495,-0.78339 c 0.32765,-0.38091 0.595726,-0.95595 0.595726,-1.27786 0,-0.3219 -0.29368,-1.01747 -0.652622,-1.5457 -0.358943,-0.52823 -1.075055,-1.2215 -1.591361,-1.54059 -0.574748,-0.35522 -1.392259,-0.58703 -2.108382,-0.59786 -0.674504,-0.0102 -1.455127,0.16938 -1.844023,0.42419 -0.370907,0.24303 -0.748706,0.73802 -0.839553,1.09998 -0.09085,0.36196 -0.09077,0.95458 1.78e-4,1.31693 0.09094,0.36235 0.568568,1.04248 1.061387,1.51139 0.492819,0.46892 1.29452,1.00284 1.781559,1.18651 0.487039,0.18367 1.361589,0.28481 1.943445,0.22476 0.724284,-0.0747 1.245794,-0.32759 1.653646,-0.80175 z m 12.886258,1.08166 c -0.44349,-0.19317 -1.017918,-0.67413 -1.27651,-1.06879 -0.355252,-0.54218 -0.425823,-0.98004 -0.288736,-1.79144 0.130157,-0.7704 0.499208,-1.39166 1.305882,-2.19833 0.861378,-0.86138 1.447965,-1.19384 2.507245,-1.42101 1.201579,-0.2577 1.532829,-0.23019 2.527687,0.20988 0.629692,0.27855 1.287515,0.77293 1.461828,1.09864 0.174313,0.32571 0.256103,1.04571 0.181758,1.6 -0.07434,0.55429 -0.386189,1.36032 -0.692986,1.79117 -0.306795,0.43086 -1.175687,1.09128 -1.930871,1.4676 -0.755182,0.37632 -1.736635,0.67957 -2.181006,0.67387 -0.44437,-0.006 -1.170802,-0.16841 -1.614291,-0.36159 z m 3.609001,-0.77224 c 0.64135,-0.33826 1.433984,-1.01071 1.761405,-1.49434 0.327422,-0.48362 0.595313,-1.1924 0.595313,-1.57507 0,-0.38266 -0.182105,-0.95574 -0.404675,-1.2735 -0.222573,-0.31777 -0.826767,-0.6943 -1.342655,-0.83675 -0.515887,-0.14244 -1.077923,-0.21654 -1.248971,-0.16467 -0.171045,0.0519 -0.63623,0.16551 -1.033743,0.25253 -0.397512,0.087 -1.134385,0.51963 -1.63749,0.96137 -0.503108,0.44173 -1.049689,1.21205 -1.214627,1.71181 -0.164937,0.49977 -0.221107,1.15687 -0.124822,1.46024 0.09629,0.30337 0.551385,0.78104 1.011337,1.0615 0.459949,0.28045 1.204497,0.51037 1.654553,0.51091 0.450054,5.3e-4 1.343022,-0.27577 1.984375,-0.61403 z M 33.722255,106.8155 c -0.09701,-0.097 -0.176389,-0.47614 -0.176389,-0.8425 0,-0.36637 0.241129,-1.16422 0.535843,-1.77302 0.294713,-0.6088 0.775165,-1.32349 1.067671,-1.5882 0.51534,-0.46638 0.548739,-0.46439 1.077214,0.0641 0.545385,0.54539 0.545385,0.54539 -0.190996,2.43071 -0.655019,1.67702 -0.813754,1.88532 -1.436667,1.88532 -0.385158,0 -0.779662,-0.0794 -0.876676,-0.17639 z m 1.817454,-1.85477 c 0.412576,-0.9329 0.570417,-1.59583 0.416592,-1.74965 -0.136213,-0.13621 -0.378799,-0.16661 -0.539079,-0.0676 -0.16028,0.0991 -0.527841,0.64354 -0.816803,1.20995 -0.288962,0.56641 -0.525386,1.27271 -0.525386,1.56955 0,0.30535 0.173783,0.53971 0.400211,0.53971 0.232219,0 0.679037,-0.63048 1.064465,-1.502 z m 14.57139,0.15855 -0.741344,-1.89803 0.573783,-0.56207 c 0.573786,-0.56208 0.573786,-0.56208 1.345187,0.35003 0.424272,0.50166 0.900496,1.30327 1.058275,1.78135 0.157781,0.47808 0.248557,1.13919 0.201723,1.46914 -0.06407,0.45137 -0.284599,0.61943 -0.890711,0.67876 -0.77279,0.0756 -0.835729,0.002 -1.546913,-1.81918 z m 1.955601,0.77138 c 0,-0.31464 -0.302675,-1.08854 -0.67261,-1.71979 -0.369938,-0.63125 -0.77963,-1.14773 -0.910429,-1.14773 -0.130797,0 -0.303485,0.10626 -0.383746,0.23613 -0.08026,0.12987 0.149333,0.90377 0.510214,1.71979 0.379773,0.85874 0.82472,1.48367 1.05636,1.48367 0.233825,0 0.400211,-0.23783 0.400211,-0.57207 z m -11.555896,-2.9979 c -0.607669,-0.18225 -1.539998,-0.6003 -2.071841,-0.929 -0.531843,-0.32869 -1.423265,-1.17486 -1.980937,-1.88037 -0.557672,-0.70551 -1.215795,-1.89044 -1.462496,-2.63319 -0.303382,-0.9134 -0.415477,-1.92128 -0.346365,-3.11427 0.06698,-1.15624 0.322699,-2.21715 0.742349,-3.07984 0.352092,-0.72381 1.125761,-1.80161 1.719264,-2.39512 0.593504,-0.5935 1.671305,-1.37051 2.395114,-1.72669 1.083268,-0.53306 1.713763,-0.64759 3.564974,-0.64759 1.851212,0 2.481707,0.11453 3.564975,0.64759 0.723809,0.35618 1.80161,1.13319 2.395113,1.72669 0.593504,0.59351 1.367945,1.67131 1.720981,2.39512 0.440045,0.90219 0.671857,1.8984 0.737196,3.1681 0.07305,1.41947 -0.03679,2.20362 -0.47021,3.3571 -0.346443,0.92199 -1.04738,2.012231 -1.80939,2.81434 -0.68413,0.72013 -1.730289,1.55334 -2.324799,1.85158 -0.594509,0.29824 -1.427946,0.5796 -1.852083,0.62524 -0.730352,0.0786 -0.775384,0.0251 -0.851038,-1.01124 -0.07718,-1.05729 -0.04069,-1.1132 1.081185,-1.65629 0.638586,-0.30914 1.314494,-0.84875 1.502016,-1.19914 0.187523,-0.35038 0.34095,-0.94269 0.34095,-1.31623 0,-0.37355 -0.194597,-0.97616 -0.432439,-1.33916 -0.237842,-0.36299 -0.805618,-0.85296 -1.261724,-1.08882 -0.480684,-0.24857 -1.464639,-0.42884 -2.340733,-0.42884 -0.876093,0 -1.860048,0.18027 -2.340732,0.42884 -0.456106,0.23586 -1.023882,0.72583 -1.261724,1.08882 -0.237842,0.363 -0.43244,0.96561 -0.43244,1.33916 0,0.37354 0.153428,0.96585 0.340951,1.31623 0.187522,0.35039 0.857249,0.88701 1.488281,1.19249 1.058674,0.51249 1.147331,0.63416 1.147331,1.57453 0,0.56051 -0.0893,1.07136 -0.198437,1.13522 -0.109141,0.0639 -0.695622,-0.033 -1.303292,-0.21526 z m 1.237146,-0.92659 c 0,-0.36517 -0.361853,-0.69791 -1.174241,-1.07977 -0.645833,-0.30358 -1.366747,-0.84576 -1.602032,-1.204849 -0.235285,-0.359091 -0.445886,-1.106661 -0.468002,-1.661251 -0.02277,-0.57104 0.157332,-1.30985 0.415277,-1.70352 0.250517,-0.38234 0.94859,-0.94673 1.551273,-1.25419 0.735092,-0.37502 1.59113,-0.55903 2.600641,-0.55903 1.009512,0 1.86555,0.18401 2.600642,0.55903 0.602683,0.30746 1.300756,0.87185 1.551273,1.25419 0.257945,0.39367 0.438048,1.13248 0.415277,1.70352 -0.02212,0.55459 -0.232717,1.30216 -0.468002,1.661251 -0.235285,0.359089 -0.956199,0.901269 -1.602032,1.204849 -0.812388,0.38186 -1.174241,0.7146 -1.174241,1.07977 0,0.3717 0.176069,0.52707 0.595313,0.52532 0.327422,-0.001 1.203916,-0.35155 1.947765,-0.77819 0.743849,-0.42664 1.672274,-1.1558 2.063167,-1.62035 0.390893,-0.46455 0.971487,-1.33475 1.290207,-1.93378 0.465391,-0.8747 0.57949,-1.53196 0.57949,-3.33811 0,-1.82226 -0.112654,-2.46091 -0.593762,-3.36608 -0.32657,-0.61442 -0.94202,-1.51377 -1.36767,-1.99856 -0.42565,-0.48478 -1.407185,-1.23224 -2.181188,-1.661 -1.248332,-0.69152 -1.661294,-0.77957 -3.656239,-0.77957 -1.994944,0 -2.407906,0.088 -3.656238,0.77957 -0.774003,0.42876 -1.755538,1.17622 -2.181188,1.661 -0.425649,0.48479 -1.041101,1.38414 -1.367671,1.99856 -0.481107,0.90517 -0.593762,1.54382 -0.593762,3.36608 0,1.80615 0.114099,2.46341 0.579491,3.33811 0.318721,0.59903 0.899314,1.46923 1.290207,1.93378 0.390893,0.46455 1.319318,1.19371 2.063167,1.62035 0.743849,0.42664 1.620343,0.77683 1.947765,0.77819 0.419244,0.002 0.595313,-0.15362 0.595313,-0.52532 z m -3.175,-7.93886 c -0.291042,-0.29104 -0.529167,-0.7408 -0.529167,-0.99946 0,-0.25866 0.185345,-0.73491 0.411878,-1.05833 0.288622,-0.41207 0.681722,-0.58804 1.313608,-0.58804 0.620724,0 0.987082,0.15948 1.175622,0.51177 0.15064,0.28147 0.273892,0.8105 0.273892,1.17562 0,0.38607 -0.24606,0.8362 -0.588038,1.07573 -0.323421,0.22653 -0.799671,0.41188 -1.058333,0.41188 -0.258663,0 -0.708421,-0.23813 -0.999462,-0.52917 z m 1.694349,-0.34555 c 0.290488,-0.21241 0.437404,-0.59471 0.381299,-0.99219 -0.06195,-0.4389 -0.287201,-0.67441 -0.701149,-0.73309 -0.335432,-0.0476 -0.781916,0.0563 -0.992188,0.23083 -0.210271,0.17451 -0.382311,0.4728 -0.382311,0.66287 0,0.19007 0.187098,0.53268 0.415774,0.76136 0.228675,0.22867 0.503575,0.41577 0.610888,0.41577 0.107313,0 0.407772,-0.1555 0.667687,-0.34555 z m 5.250963,0.47201 C 45.136837,93.884 44.92295,93.45972 44.92295,92.97287 c 0,-0.41791 0.187098,-0.94694 0.415774,-1.17562 0.228675,-0.22867 0.757705,-0.41577 1.175622,-0.41577 0.485269,0 0.908684,0.21249 1.171726,0.58804 0.226533,0.32342 0.411878,0.77691 0.411878,1.00776 0,0.23085 -0.148828,0.61456 -0.330729,0.85269 -0.181901,0.23813 -0.628386,0.50314 -0.992188,0.58891 -0.403781,0.0952 -0.893367,-0.008 -1.256771,-0.26511 z m 1.634747,-0.54223 c 0.228676,-0.22868 0.415774,-0.57129 0.415774,-0.76136 0,-0.19007 -0.17204,-0.48836 -0.382311,-0.66287 -0.210272,-0.17451 -0.656756,-0.27838 -0.992188,-0.23083 -0.402119,0.057 -0.639327,0.29421 -0.696332,0.69633 -0.04755,0.33543 0.05632,0.78192 0.230834,0.99219 0.17451,0.21027 0.472802,0.38231 0.66287,0.38231 0.190069,0 0.532678,-0.1871 0.761353,-0.41577 z m -5.610771,5.03098 C 41.218817,98.41598 40.9542,98.06299 40.9542,97.85808 c 0,-0.20491 0.230297,-0.49582 0.511772,-0.64646 0.281475,-0.15064 1.003678,-0.27389 1.604894,-0.27389 0.601217,0 1.32342,0.12325 1.604895,0.27389 0.281475,0.15064 0.511772,0.44155 0.511772,0.64646 0,0.20491 -0.264617,0.5579 -0.588038,0.78444 -0.323421,0.22653 -1.011304,0.41187 -1.528629,0.41187 -0.517324,0 -1.205207,-0.18534 -1.528628,-0.41187 z m 3.064172,-0.50631 c 0.09291,-0.0929 -0.0062,-0.27969 -0.220289,-0.41507 -0.214067,-0.13538 -0.766428,-0.24797 -1.227469,-0.25019 -0.461041,-0.002 -1.026588,0.0682 -1.256771,0.15654 -0.230183,0.0883 -0.418515,0.2582 -0.418515,0.37748 0,0.11928 0.20836,0.27709 0.463021,0.3507 0.254662,0.0736 0.919338,0.0923 1.47706,0.0416 0.557721,-0.0507 1.090054,-0.16819 1.182963,-0.2611 z M 31.526312,91.44174 c -0.31039,-0.25143 -0.697343,-0.7172 -0.859896,-1.03506 -0.162552,-0.31785 -0.29555,-0.89256 -0.29555,-1.27712 0,-0.42003 0.308801,-1.00801 0.773397,-1.4726 0.594808,-0.59481 1.015715,-0.7734 1.822772,-0.7734 0.626837,0 1.292801,0.19712 1.653926,0.48954 l 0.60455,0.48953 -0.641385,1.0306 c -0.352761,0.56683 -0.843923,1.47763 -1.09147,2.02401 -0.2806,0.61932 -0.629312,0.99119 -0.926041,0.98752 -0.261777,-0.003 -0.729913,-0.21159 -1.040303,-0.46302 z m 1.225804,-0.27427 c 0,-0.1177 0.402347,-0.88216 0.894106,-1.69881 0.639863,-1.06259 0.812904,-1.56601 0.608541,-1.77037 -0.15706,-0.15706 -0.72936,-0.28556 -1.271777,-0.28556 -0.750285,0 -1.117398,0.16677 -1.534583,0.69714 -0.301604,0.38342 -0.54837,0.98415 -0.54837,1.33494 0,0.35079 0.292244,0.93005 0.649431,1.28724 0.357188,0.35718 0.773907,0.64943 0.926042,0.64943 0.152136,0 0.27661,-0.0963 0.27661,-0.21401 z m 19.896961,-0.25023 c -0.247547,-0.54638 -0.738709,-1.45718 -1.09147,-2.02401 l -0.641387,-1.0306 0.604552,-0.48953 c 0.361125,-0.29242 1.027089,-0.48954 1.653926,-0.48954 0.807056,0 1.227964,0.17859 1.822771,0.7734 0.464597,0.46459 0.773398,1.05257 0.773398,1.4726 0,0.38456 -0.132998,0.95927 -0.29555,1.27712 -0.162552,0.31786 -0.549505,0.78363 -0.859896,1.03506 -0.310391,0.25143 -0.778526,0.45978 -1.040302,0.46302 -0.29673,0.004 -0.645443,-0.3682 -0.926042,-0.98752 z m 1.94319,-0.18519 c 0.357188,-0.35719 0.649433,-0.93645 0.649433,-1.28724 0,-0.35079 -0.246766,-0.95152 -0.54837,-1.33494 -0.417184,-0.53037 -0.784299,-0.69714 -1.534583,-0.69714 -0.542417,0 -1.114716,0.1285 -1.271778,0.28556 -0.204362,0.20436 -0.03132,0.70778 0.608541,1.77037 0.49176,0.81665 0.894107,1.58111 0.894107,1.69881 0,0.11771 0.124473,0.21401 0.276609,0.21401 0.152135,0 0.568854,-0.29225 0.926041,-0.64943 z"
       id="path221" /><path
       style="opacity:1;fill:#f5586d;fill-opacity:1;stroke:none;stroke-width:0.0443547;stroke-opacity:1"
       d="m 42.978713,84.499604 c -1.568643,0.01257 -3.128227,0.376248 -4.537874,1.065599 -0.562565,0.226203 -1.071388,0.599636 -1.666693,0.733631 -0.422111,0.0089 -0.74264,-0.354883 -1.102175,-0.528936 -0.65932,-0.45329 -1.428945,-0.739283 -2.23085,-0.780831 -1.16541,-0.08122 -2.442255,0.143346 -3.305513,0.990219 -0.524709,0.441161 -0.983589,0.969198 -1.243322,1.610903 -0.285745,0.5144 -0.346771,1.104236 -0.335257,1.682408 -0.01254,0.624959 0.01876,1.272644 0.329322,1.832303 0.332621,0.733208 0.828188,1.398456 1.50422,1.848091 0.651253,0.499142 1.456425,0.721035 2.207635,1.020617 0.151784,1.715918 0.30361,3.469741 0.999816,5.067715 0.211719,0.560391 0.511601,1.111307 0.693727,1.667987 -0.698132,0.83336 -1.456391,1.63968 -1.921254,2.6367 -0.483698,0.93739 -0.720714,1.97536 -0.925427,2.9993 -0.09565,0.48419 -0.484712,0.83754 -0.921229,1.02607 -1.202973,0.63478 -2.222551,1.76315 -2.418361,3.14608 -0.17314,0.9986 -0.139634,2.06944 0.344427,2.98207 0.48991,1.00149 1.093269,2.01965 2.067761,2.61818 1.078198,0.71615 2.322819,1.21249 3.611996,1.36041 0.913845,0.0853 1.829134,-0.0416 2.713705,-0.26738 0.684281,-0.15176 1.391232,-0.13356 2.059204,0.0697 1.441593,0.38197 2.93451,0.55408 4.425437,0.51086 0.933119,0.008 1.871437,-0.0339 2.778323,-0.27226 0.97124,-0.19779 1.949429,-0.74092 2.955965,-0.43195 0.74214,0.25892 1.517396,0.46319 2.310902,0.4058 1.319692,-0.0128 2.623341,-0.4214 3.763169,-1.07427 0.742206,-0.42619 1.435298,-0.97345 1.875454,-1.72064 0.779648,-1.15846 1.329597,-2.57158 1.086964,-3.98633 -0.111649,-0.77824 -0.376105,-1.56197 -0.94697,-2.12666 -0.555967,-0.63621 -1.287788,-1.07575 -2.018925,-1.47966 -0.35723,-0.27652 -0.414726,-0.78006 -0.529865,-1.18729 -0.244546,-1.24845 -0.641421,-2.49176 -1.39605,-3.53217 -0.408302,-0.60203 -0.9051,-1.13624 -1.383631,-1.68175 0.572628,-1.258355 1.152052,-2.533136 1.382985,-3.907165 0.189884,-0.85431 0.156726,-1.74775 0.406803,-2.586836 0.174535,-0.452147 0.737724,-0.470469 1.107744,-0.678403 1.273069,-0.563438 2.43047,-1.60946 2.749259,-3.010553 0.443759,-1.612948 -0.09304,-3.467957 -1.408025,-4.524902 -0.819121,-0.742741 -1.941264,-1.063945 -3.032522,-1.019399 -0.9266,-0.02875 -1.819212,0.305876 -2.586845,0.805912 -0.384233,0.201039 -0.741497,0.610955 -1.219268,0.489562 -0.632516,-0.224687 -1.20051,-0.605121 -1.828684,-0.845947 -1.386538,-0.629415 -2.892928,-0.947267 -4.416078,-0.926775 z m 0.304247,2.017713 c 0.959027,-0.0074 1.937792,0.01302 2.830269,0.405841 1.208074,0.510792 2.294834,1.304883 3.185094,2.262812 0.972875,1.110022 1.783789,2.419845 2.019808,3.895484 0.172868,1.069872 0.226853,2.173574 0.08731,3.248332 -0.43655,2.483393 -2.155111,4.588574 -4.237585,5.927474 -0.7477,0.43337 -1.589749,0.75552 -2.455143,0.81896 -0.227701,0.0422 -0.414486,-0.12376 -0.430467,-0.34634 -0.06848,-0.50618 -0.174082,-1.0383 -0.0499,-1.54281 0.206605,-0.478 0.787993,-0.60031 1.190561,-0.85781 0.650452,-0.373419 1.369722,-0.838947 1.555822,-1.618766 0.29328,-0.844161 0.06059,-1.819304 -0.55463,-2.460755 -0.507585,-0.576006 -1.201576,-0.976865 -1.963309,-1.092499 -1.173388,-0.197104 -2.422758,-0.19423 -3.550484,0.220552 -1.011203,0.434858 -1.864629,1.403789 -1.8738,2.545908 6.6e-5,0.736348 0.31433,1.491834 0.933357,1.918521 0.537247,0.455629 1.238536,0.660639 1.773328,1.114069 0.354068,0.38462 0.197665,0.96397 0.212997,1.43445 -0.03946,0.22744 0.02363,0.54292 -0.174707,0.70766 -0.540586,0.0486 -1.069329,-0.17667 -1.579848,-0.33256 -1.033081,-0.36198 -2.032508,-0.88187 -2.795601,-1.68394 -1.158525,-1.120659 -2.077349,-2.526177 -2.528659,-4.077868 -0.253945,-1.119156 -0.238689,-2.287903 -0.130813,-3.42546 0.147026,-1.484932 0.830958,-2.868226 1.772613,-4.009252 0.915818,-1.13452 2.123453,-2.037816 3.456178,-2.627612 0.807812,-0.366101 1.697802,-0.419576 2.571665,-0.418465 0.245282,-0.0048 0.490622,-0.0059 0.735947,-0.0059 z m 9.907934,0.383341 c 0.606745,-0.01786 1.22479,0.17807 1.645113,0.633614 0.578334,0.518149 1.070718,1.28865 0.869413,2.092986 -0.19258,1.054084 -1.016704,2.000837 -2.06578,2.260547 -0.470839,0.004 -0.687147,-0.509778 -0.901372,-0.848304 -0.53467,-1.064623 -1.110456,-2.108065 -1.759955,-3.107674 -0.03621,-0.159422 0.261842,-0.27069 0.371769,-0.402059 0.511106,-0.438327 1.179126,-0.622239 1.840812,-0.62911 z m -20.229359,0.0047 c 0.77031,-0.01289 1.529053,0.292161 2.078818,0.833409 0.316688,0.144946 -0.04605,0.389345 -0.122418,0.591822 -0.616714,0.931376 -1.099738,1.93947 -1.638302,2.915113 -0.184732,0.279988 -0.414907,0.70317 -0.81189,0.632421 -1.090345,-0.29603 -1.955572,-1.319901 -2.046647,-2.450603 -0.128064,-0.756827 0.378068,-1.431184 0.906761,-1.916615 0.440269,-0.431033 1.023969,-0.630269 1.633678,-0.605547 z m 10.151022,9.934789 c 0.676823,0.01598 1.474756,0.02276 1.976909,0.541269 0.197413,0.217683 0.288845,0.562745 0.08923,0.808784 -0.426262,0.716147 -1.308182,0.963435 -2.092452,0.958246 -0.782209,0.0295 -1.669434,-0.2351 -2.113285,-0.919697 -0.253897,-0.377359 -0.03453,-0.88144 0.347128,-1.072485 0.538456,-0.301144 1.191299,-0.294077 1.792472,-0.316117 z m -7.418435,5.446723 c 0.345088,0.19837 0.651492,0.4984 0.863881,0.83651 0.120824,0.41116 -0.138052,0.81459 -0.244266,1.20193 -0.318892,0.79175 -0.561359,1.64091 -1.03804,2.35096 -0.295796,0.39888 -0.8676,0.30461 -1.286637,0.23598 -0.253831,-0.0106 -0.357198,-0.25375 -0.381952,-0.47257 -0.144881,-0.85148 0.233523,-1.68245 0.595402,-2.43228 0.351179,-0.63112 0.741339,-1.30202 1.375008,-1.68596 0.03704,-0.0153 0.0756,-0.0343 0.116604,-0.0346 z m 14.79364,0.003 c 0.430805,0.18142 0.678947,0.6255 0.966192,0.97183 0.615135,0.83077 1.129268,1.80892 1.072312,2.86738 0.0205,0.31559 -0.150157,0.64985 -0.482275,0.71348 -0.405106,0.11054 -0.979792,0.21199 -1.239422,-0.21631 -0.497536,-0.88328 -0.790355,-1.86514 -1.181005,-2.79748 -0.02819,-0.23982 -0.372917,-0.5457 -0.108304,-0.72441 0.313676,-0.27141 0.566129,-0.6628 0.96072,-0.81527 z m -3.269525,2.17997 c 0.51421,-0.0154 0.747514,0.5318 0.943406,0.91534 0.356984,0.78474 0.703504,1.60084 0.958395,2.41535 -0.856525,1.09994 -1.951595,2.05216 -2.488549,3.37096 -0.334798,0.76888 -0.337497,1.63938 -0.259024,2.45996 0.05355,0.55304 0.254968,1.10612 0.185909,1.66201 -0.170585,0.39235 -0.680042,0.41494 -1.044678,0.486 -1.316569,0.14858 -2.650175,0.11202 -3.973917,0.0864 -0.606015,-0.0669 -1.275914,-0.0335 -1.805207,-0.36922 -0.293688,-0.22927 -0.112461,-0.64856 -0.108236,-0.95641 0.118525,-0.70707 0.239078,-1.42012 0.161946,-2.13959 -0.01029,-1.04101 -0.601824,-1.9492 -1.203264,-2.75348 -0.487336,-0.63628 -1.070652,-1.19642 -1.558084,-1.82954 0.295881,-0.93308 0.655662,-1.85992 1.10584,-2.73345 0.158205,-0.34132 0.479689,-0.68719 0.892553,-0.60988 0.787686,0.12014 1.536581,0.44593 2.33426,0.53988 1.741546,0.26077 3.542038,0.11977 5.215419,-0.43359 0.20873,-0.0544 0.42455,-0.10981 0.643231,-0.11071 z m -14.210961,4.21978 c 1.225111,0.0724 2.431881,0.55047 3.319722,1.41085 0.61768,0.59131 1.258234,1.25061 1.5231,2.07957 0.20892,0.78607 0.05541,1.66062 -0.458576,2.30123 -0.448074,0.60303 -1.126942,1.00784 -1.869149,1.13092 -0.938228,0.25555 -1.886934,-0.12342 -2.740421,-0.48549 -1.345944,-0.60807 -2.589448,-1.74395 -2.873074,-3.24736 -0.06077,-0.58635 -0.02598,-1.21123 0.242449,-1.74542 0.492413,-0.63646 1.264819,-0.97442 1.991486,-1.27107 0.277874,-0.10292 0.567643,-0.17649 0.864463,-0.17323 z m 20.152431,0.0563 c 0.742701,-0.0426 1.415325,0.34024 2.03911,0.69972 0.443738,0.28674 0.949899,0.65831 0.96879,1.24271 0.04237,0.66468 0.08534,1.35859 -0.196998,1.97657 -0.233275,0.67876 -0.687756,1.25888 -1.276588,1.66443 -0.876755,0.63856 -1.889895,1.12259 -2.95719,1.32654 -0.615574,0.11474 -1.236559,-0.0939 -1.816328,-0.27918 -0.765698,-0.33308 -1.452969,-0.97409 -1.683578,-1.79212 -0.188179,-1.14307 0.320281,-2.29971 1.140648,-3.08389 0.60171,-0.63796 1.297109,-1.22502 2.154595,-1.47041 0.525933,-0.17305 1.073303,-0.27832 1.627539,-0.28437 z"
       id="path7958" /><path
       style="opacity:1;fill:#f5586d;fill-opacity:1;stroke:none;stroke-width:0.16764;stroke-opacity:1"
       d="m 249.61482,332.83744 c -2.29369,0.10061 -4.12627,1.83097 -5.55701,3.47428 -2.87109,3.55792 -4.63522,7.8923 -5.41655,12.37723 -2.14436,10.66703 -2.11459,21.6015 -2.64779,32.42674 -0.52809,15.77492 -1.02688,31.56481 -0.65921,47.34883 0.023,5.37162 1.28255,10.79082 3.95627,15.47002 0.94214,1.69987 2.72963,3.07551 4.76302,2.81419 1.78163,-0.14206 3.72877,-0.22621 5.27969,-1.19575 2.11057,-2.21906 3.28729,-5.1601 4.29807,-8.00745 2.40428,-7.52697 2.10225,-15.53609 2.7569,-23.31314 0.98883,-1.34406 2.61371,-2.09023 3.90587,-3.1223 1.71241,-1.07359 3.29296,-2.45787 5.18698,-3.18353 0.89032,0.11285 1.08835,1.29148 1.56065,1.8976 3.03944,5.86457 5.4055,12.06125 8.72468,17.78508 2.84256,5.03474 5.96136,9.97736 9.85214,14.27464 1.79081,1.8502 4.37128,3.44533 7.04384,3.01327 2.42852,-0.46579 4.3235,-2.44723 4.96111,-4.79903 1.08015,-3.15026 -0.23291,-6.44184 -0.96435,-9.5147 -2.40165,-7.81014 -6.10461,-15.14103 -9.79173,-22.4067 -1.80401,-3.64601 -3.99092,-7.09732 -5.73264,-10.77036 -0.23985,-0.92805 -0.98877,-2.15487 -0.11783,-2.97779 5.0515,-6.8439 10.82953,-13.16934 15.34139,-20.40137 1.59629,-2.96022 2.93372,-6.14847 3.41501,-9.49526 0.1816,-2.74323 -1.37695,-5.95861 -4.21065,-6.64864 -2.7521,-0.51272 -5.46591,0.76212 -7.78381,2.11515 -4.76469,3.62294 -8.90736,7.98539 -13.15022,12.18871 -4.06156,4.083 -8.03288,8.28757 -12.45358,11.98717 -0.29404,0.27643 -0.90867,0.69654 -1.04545,0.0606 -0.80133,-3.29142 -0.68796,-6.73454 -0.92202,-10.10622 -0.50356,-10.41942 -0.3403,-20.88512 -1.49109,-31.26427 -0.34774,-3.14759 -2.08554,-6.0297 -4.28268,-8.24581 -1.33938,-1.13504 -3.01277,-1.99849 -4.81901,-1.78118 z"
       id="path7960"
       transform="scale(0.26458333)" /><path
       style="opacity:1;fill:#f5586d;fill-opacity:1;stroke:none;stroke-width:0.16764;stroke-opacity:1"
       d="m 320.27457,358.90617 c -2.33831,0.34271 -4.03943,2.28478 -5.49059,3.99422 -3.47024,4.40318 -4.68882,10.04438 -5.77209,15.41703 -1.10288,7.27417 -0.72677,14.66422 -0.77898,21.99457 0.13625,9.50038 -0.017,19.0308 0.91033,28.49744 0.45078,4.91625 2.17668,10.0263 6.05693,13.29186 0.86461,0.58305 1.6987,1.55622 2.80209,1.5749 2.78805,-0.95072 5.32282,-2.73552 6.87063,-5.28034 2.93354,-4.61396 4.34523,-10.06517 4.68761,-15.48728 1.08765,-13.56229 1.54932,-27.18846 1.14397,-40.79103 -0.16311,-5.99444 -1.08145,-12.01436 -3.1048,-17.67171 -1.30443,-2.91001 -4.09625,-5.23244 -7.3251,-5.53966 z"
       id="path7962"
       transform="scale(0.26458333)" /><path
       style="opacity:1;fill:#f5586d;fill-opacity:1;stroke:none;stroke-width:0.474158;stroke-opacity:1"
       d="m 321.81747,334.64753 c -4.23109,0.14605 -8.68845,3.22645 -9.70451,7.42262 0.52415,5.12323 7.24827,7.01824 11.18347,4.33781 2.8077,-1.44707 5.81206,-3.76519 5.39541,-7.32816 0.50425,-3.86343 -4.0826,-4.45744 -6.87437,-4.43227 z"
       id="path7964"
       transform="scale(0.26458333)" /><path
       style="opacity:1;fill:#f5586d;fill-opacity:1;stroke:none;stroke-width:0.474158;stroke-opacity:1"
       d="m 395.41946,325.07638 c -5.08079,0.30169 -8.49405,5.25891 -8.63749,10.05959 -1.90692,10.96697 -1.66054,22.2218 -3.2776,33.17959 -0.0816,1.3611 -1.46254,1.44269 -2.12723,0.31209 -4.74834,-4.26652 -10.2802,-9.24571 -17.19102,-8.35334 -7.38782,0.37196 -13.33459,6.28927 -16.56221,12.57261 -4.92621,10.17397 -6.45349,21.76265 -6.19925,32.97254 0.71205,11.30236 4.44043,22.64877 11.31868,31.70471 4.73155,6.26243 13.58182,8.87121 20.85279,5.73714 5.32582,-1.79874 8.15979,-7.44008 13.2079,-9.54244 1.90457,1.91806 2.45068,5.1057 4.88698,6.71508 3.34433,3.33736 9.97123,2.71074 11.66597,-2.03925 2.83488,-3.66486 1.53749,-8.32427 1.8177,-12.60039 0.0239,-30.83473 0.0758,-61.67254 0.0836,-92.50536 -1.69067,-4.31436 -4.58681,-8.67949 -9.83878,-8.21257 z m -25.85924,59.80324 c 4.85769,-0.19177 8.26756,4.15455 10.70839,7.80787 3.30561,6.36375 2.9056,13.80654 3.70992,20.73888 -4.41478,3.70033 -8.72365,9.7007 -15.17955,9.11828 -5.08828,-0.88233 -6.00172,-6.89418 -7.17721,-11.02788 -1.6019,-7.60536 -2.39699,-16.07768 1.10576,-23.27729 1.33218,-2.45328 4.16203,-3.45181 6.83269,-3.35986 z"
       id="path7966"
       transform="scale(0.26458333)" /><path
       style="opacity:1;fill:#f5586d;fill-opacity:1;stroke:none;stroke-width:0.474158;stroke-opacity:1"
       d="m 458.59089,355.89946 c -7.57917,0.63234 -13.04657,6.53588 -18.78853,10.81211 -1.99844,0.95146 -2.66796,-2.29756 -3.4761,-3.48495 -1.15174,-3.54438 -4.85627,-5.98931 -8.57512,-4.90265 -3.89868,1.19622 -5.07367,5.89017 -6.42429,9.27294 -4.20056,12.68733 -2.56068,26.24447 -2.84657,39.36344 0.45118,10.81911 -0.21937,22.23752 4.29034,32.35303 1.84822,4.65099 7.90718,7.63787 12.28645,4.42116 3.11964,-1.8141 4.81665,-5.34254 4.3123,-8.92469 0.36996,-11.23246 -1.75338,-22.48107 -0.65239,-33.68012 0.97147,-4.64356 2.08051,-9.7403 5.24167,-13.37923 1.79179,-1.78389 5.54582,-2.96988 6.9179,-0.0565 2.16254,6.19821 1.45453,13.00143 2.04573,19.46365 0.68185,10.88182 0.16774,21.93264 2.19854,32.68081 1.03678,3.10527 3.07878,6.47001 6.27797,7.63007 4.60997,-0.5241 6.52852,-5.6719 7.97455,-9.45355 3.45744,-11.73032 3.11175,-24.15128 4.77865,-36.18699 0.83673,-5.84184 1.32068,-12.75131 6.0696,-16.89004 1.58976,-1.02271 4.17871,-1.6398 5.82696,-0.51861 1.70986,4.34687 0.83702,9.32719 1.2738,13.91905 0.44919,13.17412 0.0883,26.40153 1.15071,39.54139 0.66826,3.35498 3.84264,7.32026 7.58931,6.41966 6.96185,-4.76406 9.40322,-13.76539 9.81471,-21.76868 0.50972,-14.80225 1.14742,-29.68289 -0.0908,-44.4607 -1.03907,-6.79297 -2.0455,-14.78501 -7.80787,-19.33863 -4.39677,-3.18344 -10.41567,-0.49527 -14.06639,2.63473 -3.72255,2.85654 -6.75532,6.77777 -10.81211,9.0794 -2.05454,-1.79636 -2.00417,-5.11743 -3.74141,-7.26055 -2.297,-3.73548 -6.04927,-7.48361 -10.76765,-7.28556 z"
       id="path7968"
       transform="scale(0.26458333)" /><path
       style="opacity:1;fill:#f5586d;fill-opacity:1;stroke:none;stroke-width:0.474158;stroke-opacity:1"
       d="m 544.14315,358.86758 c -10.05605,0.28073 -20.70413,5.3255 -25.02668,14.81745 -1.90993,3.84209 -0.64626,9.29458 3.73215,10.73895 4.8897,1.12067 9.34303,-2.42682 13.69899,-4.06355 4.32615,-2.05784 9.30047,-4.95515 14.13559,-2.66913 4.47602,1.55067 6.6859,6.36363 6.35299,10.86953 1.25204,3.70088 -2.266,3.51076 -4.87865,4.07387 -11.34527,2.68966 -22.99445,7.16313 -31.0759,15.89635 -3.18472,4.00325 -5.93452,9.08845 -5.53432,14.33866 1.07293,8.47023 6.92273,16.06867 14.43776,19.90077 4.61597,1.1354 9.58684,0.76703 14.24512,-0.0509 5.46593,-1.43133 10.23814,-4.63058 15.25179,-7.117 1.51439,4.11228 2.83132,9.08094 7.34853,10.88063 3.42913,2.21116 8.03345,0.67831 9.82768,-2.88199 5.1059,-7.94475 3.46863,-17.90513 3.6917,-26.83136 -0.21198,-14.70338 -0.9078,-30.19289 -8.08516,-43.39852 -4.03499,-7.14563 -10.85639,-13.51109 -19.42387,-14.00621 -2.87987,-0.39053 -5.7912,-0.58188 -8.69772,-0.49751 z m 12.58557,47.82333 c 1.82547,0.37631 1.04995,3.32844 1.6127,4.65193 -0.0112,2.37505 1.26413,4.95388 0.7192,7.25296 -5.37595,3.16558 -11.81924,5.81217 -18.15508,4.7064 -3.12535,-1.42898 -3.17963,-6.03272 -0.54547,-8.03292 3.64942,-4.29571 8.65897,-7.16427 14.18215,-8.21164 0.71988,-0.16084 1.44598,-0.34382 2.1865,-0.36673 z"
       id="path7970"
       transform="scale(0.26458333)" /><path
       style="opacity:1;fill:#f5586d;fill-opacity:1;stroke:none;stroke-width:0.474158;stroke-opacity:1"
       d="m 600.81898,356.80147 c -4.55948,0.66045 -6.99504,5.50223 -8.21443,9.46743 -1.39923,15.58501 -0.81632,31.28664 -0.6798,46.91748 0.39068,7.83316 0.0147,15.81026 1.5068,23.53209 1.3379,3.72944 4.51587,8.48423 9.05347,7.76713 6.979,-2.04934 9.7715,-9.84468 10.20089,-16.44274 1.3254,-11.48442 0.30977,-23.19843 2.33004,-34.58764 1.53481,-4.81239 3.84764,-10.24629 8.55986,-12.69022 2.20713,-0.54201 3.65871,2.27367 5.01848,3.62472 2.10369,4.25674 1.2013,9.31948 1.27441,13.92793 -0.5106,11.61708 -3.00487,23.10116 -2.35188,34.77776 -0.0222,5.23911 0.7132,11.82651 6.04039,14.36294 4.21482,-0.70283 7.24657,-4.5155 9.48503,-7.89307 4.84429,-10.24706 7.84584,-21.38307 9.32203,-32.60395 0.69537,-10.54706 0.16092,-21.13369 0.22133,-31.69268 -3.00947,-5.57899 -5.44755,-12.63838 -12.04381,-14.89802 -9.11757,-3.81915 -19.67136,0.0216 -26.34913,6.73082 -0.78091,0.50517 -2.19493,2.21991 -2.78291,0.55381 -2.70938,-3.98518 -4.61154,-11.02533 -10.59077,-10.85379 z"
       id="path7972"
       transform="scale(0.26458333)" /><path
       style="opacity:1;fill:#f5586d;fill-opacity:1;stroke:none;stroke-width:0.474158;stroke-opacity:1"
       d="m 677.5067,358.61105 c -7.84845,3.41211 -10.35828,12.52034 -11.65696,20.21812 -2.3609,16.44726 -2.22283,33.28555 0.12343,49.72674 0.74113,5.49901 2.78221,11.67032 7.90881,14.52018 4.14994,1.04699 7.06586,-3.39177 8.80157,-6.49746 4.44283,-9.69523 3.89807,-20.71525 4.35821,-31.13043 -0.0161,-11.94899 0.42385,-23.9914 -0.98816,-35.87131 -1.26551,-4.65876 -3.80133,-9.22648 -8.5469,-10.96584 z"
       id="path7974"
       transform="scale(0.26458333)" /><path
       style="opacity:1;fill:#f5586d;fill-opacity:1;stroke:none;stroke-width:0.474158;stroke-opacity:1"
       d="m 678.80323,334.46601 c -4.45502,0.0336 -9.519,3.37532 -9.70913,8.09867 0.83615,3.7538 5.0181,5.61535 8.55152,4.52951 4.4094,-0.5475 9.50533,-4.61381 7.77731,-9.4878 -1.00399,-2.69035 -4.08659,-3.23619 -6.6197,-3.14038 z"
       id="path7976"
       transform="scale(0.26458333)" /><path
       style="opacity:1;fill:#f5586d;fill-opacity:1;stroke:none;stroke-width:0.474158;stroke-opacity:1"
       d="m 727.86845,357.97112 c -8.04753,0.46085 -16.09274,3.36689 -22.44289,8.34871 -3.7019,3.37348 -6.98525,8.51896 -5.89734,13.70152 0.99907,3.05788 4.14699,4.59288 6.81047,5.90382 6.76903,-3.01183 13.11533,-7.4333 20.42678,-8.97104 5.33432,-0.57239 11.27123,3.39165 11.25552,9.12576 0.19775,1.78677 0.003,3.61559 -0.0887,5.41387 -13.04091,3.19541 -27.11013,7.2003 -36.27425,17.67085 -3.74882,4.63849 -6.59499,11.10528 -4.31108,17.03463 1.15382,6.5451 6.10497,11.39782 11.15324,15.27471 4.02723,2.99642 9.34462,1.77561 13.99787,1.75772 6.39464,-0.70483 11.62648,-4.89215 17.61609,-6.75954 2.48114,-0.44227 1.59808,2.70728 2.16057,4.09981 1.45604,5.79659 9.89755,9.58637 14.26458,4.59341 5.89209,-6.94144 4.82639,-16.72464 5.13768,-25.19892 -0.18033,-13.78573 -0.98927,-27.89956 -5.58406,-41.00916 -2.81305,-6.93211 -6.85236,-13.97979 -13.92655,-17.26048 -4.40221,-2.23062 -9.33083,-3.75081 -14.29791,-3.72567 z m 10.25367,49.54308 c 2.23633,3.32821 1.91178,7.53569 1.93924,11.36499 -5.86279,2.76483 -12.49869,5.96969 -19.10248,4.18222 -2.52018,-3.97157 0.32542,-8.96468 3.90348,-11.22422 3.65317,-2.77498 8.02707,-4.30043 12.40405,-5.52691 0.28524,0.40131 0.57048,0.80262 0.85571,1.20392 z"
       id="path7978"
       transform="scale(0.26458333)" /><path
       style="opacity:1;fill:none;fill-opacity:1;stroke:none;stroke-width:0.0627272;stroke-opacity:1"
       d="m 38.792861,104.92262 c -0.384233,0.80342 -0.800742,1.63251 -0.994079,2.51264 0.07242,0.62038 0.611423,1.06298 0.948994,1.55238 0.825416,1.07413 1.562362,2.32371 1.648304,3.70213 0.02945,0.76674 -0.239958,1.49707 -0.336177,2.24727 0.0494,0.39633 0.59458,0.32502 0.878745,0.39557 1.460818,0.11863 2.935894,0.0961 4.396465,-0.0145 0.282276,-0.0596 0.804206,-0.12035 0.718301,-0.53073 -0.160266,-0.79403 -0.311012,-1.60104 -0.202864,-2.41313 0.156533,-1.48732 0.982449,-2.83531 1.983973,-3.91539 0.283284,-0.34729 0.697146,-0.78849 0.454568,-1.26954 -0.264367,-0.75614 -0.535186,-1.53083 -0.95222,-2.21581 -0.224867,-0.12477 -0.494133,0.15671 -0.730919,0.15559 -1.787703,0.56892 -3.707948,0.59915 -5.554911,0.36117 -0.770853,-0.10931 -1.504956,-0.38376 -2.25818,-0.5676 z"
       id="path9432" /><path
       style="opacity:1;fill:none;fill-opacity:1;stroke:none;stroke-width:0.0627272;stroke-opacity:1"
       d="m 39.776648,91.307386 c -0.759433,0.08403 -1.523587,0.652635 -1.700003,1.415772 -0.113961,0.779756 0.511855,1.489427 1.196105,1.761998 0.786037,0.18324 1.740026,-0.318069 1.897131,-1.146365 0.213862,-0.885378 -0.388057,-2.059578 -1.393233,-2.031405 z"
       id="path11701" /><path
       style="opacity:1;fill:#f5586d;fill-opacity:1;stroke:none;stroke-width:0.0627272;stroke-opacity:1"
       d="m 46.460161,91.359453 c -0.915506,-0.0048 -1.68366,0.869212 -1.564627,1.774249 0.07887,0.566163 0.566137,1.020847 1.078,1.221343 0.52895,0.129577 1.120066,0.07586 1.531549,-0.31486 0.507523,-0.349292 0.691295,-1.040823 0.428064,-1.596972 -0.233572,-0.593513 -0.791044,-1.142362 -1.472986,-1.08376 z"
       id="path11703" /><path
       style="opacity:1;fill:#000000;fill-opacity:0.32526;stroke:none;stroke-width:0.0627272;stroke-opacity:1"
       d="m 39.776648,91.307386 c -0.759433,0.08403 -1.523587,0.652635 -1.700003,1.415772 -0.113961,0.779756 0.511855,1.489427 1.196105,1.761998 0.786037,0.18324 1.740026,-0.318069 1.897131,-1.146365 0.213862,-0.885378 -0.388057,-2.059578 -1.393233,-2.031405 z"
       id="path12188" /><path
       style="opacity:1;fill:#f5586d;fill-opacity:1;stroke:none;stroke-width:0.0443547;stroke-opacity:1"
       d="m 39.795561,91.288148 c -0.743725,0.06466 -1.474031,0.582054 -1.709568,1.301882 -0.172186,0.615114 0.173535,1.231361 0.64739,1.606479 0.358529,0.330663 0.881034,0.459875 1.34338,0.285708 0.645858,-0.173456 1.20791,-0.786062 1.132834,-1.483807 0.06956,-0.612154 -0.266954,-1.2319 -0.782933,-1.553115 -0.190011,-0.11085 -0.411356,-0.165447 -0.631103,-0.157147 z"
       id="path12190" /></g></svg>
